%TF.GenerationSoftware,KiCad,Pcbnew,7.0.1-0*%
%TF.CreationDate,2023-04-05T17:24:46+02:00*%
%TF.ProjectId,_autosave-wind_down_timer,5f617574-6f73-4617-9665-2d77696e645f,rev?*%
%TF.SameCoordinates,Original*%
%TF.FileFunction,Legend,Bot*%
%TF.FilePolarity,Positive*%
%FSLAX46Y46*%
G04 Gerber Fmt 4.6, Leading zero omitted, Abs format (unit mm)*
G04 Created by KiCad (PCBNEW 7.0.1-0) date 2023-04-05 17:24:46*
%MOMM*%
%LPD*%
G01*
G04 APERTURE LIST*
%ADD10C,0.100000*%
G04 APERTURE END LIST*
D10*
X124174285Y-80157619D02*
X123698095Y-81157619D01*
X123698095Y-81157619D02*
X123317142Y-80443333D01*
X123317142Y-80443333D02*
X122936190Y-81157619D01*
X122936190Y-81157619D02*
X122460000Y-80157619D01*
X121698095Y-81157619D02*
X121698095Y-80157619D01*
X120745714Y-81157619D02*
X120745714Y-80157619D01*
X120745714Y-80157619D02*
X119602857Y-81157619D01*
X119602857Y-81157619D02*
X119602857Y-80157619D01*
X118650476Y-81157619D02*
X118650476Y-80157619D01*
X118650476Y-80157619D02*
X118174286Y-80157619D01*
X118174286Y-80157619D02*
X117888571Y-80205238D01*
X117888571Y-80205238D02*
X117698095Y-80300476D01*
X117698095Y-80300476D02*
X117602857Y-80395714D01*
X117602857Y-80395714D02*
X117507619Y-80586190D01*
X117507619Y-80586190D02*
X117507619Y-80729047D01*
X117507619Y-80729047D02*
X117602857Y-80919523D01*
X117602857Y-80919523D02*
X117698095Y-81014761D01*
X117698095Y-81014761D02*
X117888571Y-81110000D01*
X117888571Y-81110000D02*
X118174286Y-81157619D01*
X118174286Y-81157619D02*
X118650476Y-81157619D01*
X115126666Y-81157619D02*
X115126666Y-80157619D01*
X115126666Y-80157619D02*
X114650476Y-80157619D01*
X114650476Y-80157619D02*
X114364761Y-80205238D01*
X114364761Y-80205238D02*
X114174285Y-80300476D01*
X114174285Y-80300476D02*
X114079047Y-80395714D01*
X114079047Y-80395714D02*
X113983809Y-80586190D01*
X113983809Y-80586190D02*
X113983809Y-80729047D01*
X113983809Y-80729047D02*
X114079047Y-80919523D01*
X114079047Y-80919523D02*
X114174285Y-81014761D01*
X114174285Y-81014761D02*
X114364761Y-81110000D01*
X114364761Y-81110000D02*
X114650476Y-81157619D01*
X114650476Y-81157619D02*
X115126666Y-81157619D01*
X112745714Y-80157619D02*
X112364761Y-80157619D01*
X112364761Y-80157619D02*
X112174285Y-80205238D01*
X112174285Y-80205238D02*
X111983809Y-80300476D01*
X111983809Y-80300476D02*
X111888571Y-80490952D01*
X111888571Y-80490952D02*
X111888571Y-80824285D01*
X111888571Y-80824285D02*
X111983809Y-81014761D01*
X111983809Y-81014761D02*
X112174285Y-81110000D01*
X112174285Y-81110000D02*
X112364761Y-81157619D01*
X112364761Y-81157619D02*
X112745714Y-81157619D01*
X112745714Y-81157619D02*
X112936190Y-81110000D01*
X112936190Y-81110000D02*
X113126666Y-81014761D01*
X113126666Y-81014761D02*
X113221904Y-80824285D01*
X113221904Y-80824285D02*
X113221904Y-80490952D01*
X113221904Y-80490952D02*
X113126666Y-80300476D01*
X113126666Y-80300476D02*
X112936190Y-80205238D01*
X112936190Y-80205238D02*
X112745714Y-80157619D01*
X111221904Y-80157619D02*
X110745714Y-81157619D01*
X110745714Y-81157619D02*
X110364761Y-80443333D01*
X110364761Y-80443333D02*
X109983809Y-81157619D01*
X109983809Y-81157619D02*
X109507619Y-80157619D01*
X108745714Y-81157619D02*
X108745714Y-80157619D01*
X108745714Y-80157619D02*
X107602857Y-81157619D01*
X107602857Y-81157619D02*
X107602857Y-80157619D01*
X105412380Y-80157619D02*
X104269523Y-80157619D01*
X104840952Y-81157619D02*
X104840952Y-80157619D01*
X103602856Y-81157619D02*
X103602856Y-80157619D01*
X102650475Y-81157619D02*
X102650475Y-80157619D01*
X102650475Y-80157619D02*
X101983808Y-80871904D01*
X101983808Y-80871904D02*
X101317142Y-80157619D01*
X101317142Y-80157619D02*
X101317142Y-81157619D01*
X100364761Y-80633809D02*
X99698094Y-80633809D01*
X99412380Y-81157619D02*
X100364761Y-81157619D01*
X100364761Y-81157619D02*
X100364761Y-80157619D01*
X100364761Y-80157619D02*
X99412380Y-80157619D01*
X97412380Y-81157619D02*
X98079047Y-80681428D01*
X98555237Y-81157619D02*
X98555237Y-80157619D01*
X98555237Y-80157619D02*
X97793332Y-80157619D01*
X97793332Y-80157619D02*
X97602856Y-80205238D01*
X97602856Y-80205238D02*
X97507618Y-80252857D01*
X97507618Y-80252857D02*
X97412380Y-80348095D01*
X97412380Y-80348095D02*
X97412380Y-80490952D01*
X97412380Y-80490952D02*
X97507618Y-80586190D01*
X97507618Y-80586190D02*
X97602856Y-80633809D01*
X97602856Y-80633809D02*
X97793332Y-80681428D01*
X97793332Y-80681428D02*
X98555237Y-80681428D01*
M02*
