M48
; DRILL file {KiCad 7.0.1-0} date 2023 April 05, Wednesday 17:25:34
; FORMAT={-:-/ absolute / inch / decimal}
; #@! TF.CreationDate,2023-04-05T17:25:34+02:00
; #@! TF.GenerationSoftware,Kicad,Pcbnew,7.0.1-0
; #@! TF.FileFunction,Plated,1,2,PTH
FMAT,2
INCH
; #@! TA.AperFunction,Plated,PTH,ViaDrill
T1C0.0118
; #@! TA.AperFunction,Plated,PTH,ComponentDrill
T2C0.0295
; #@! TA.AperFunction,Plated,PTH,ComponentDrill
T3C0.0315
; #@! TA.AperFunction,Plated,PTH,ComponentDrill
T4C0.0394
; #@! TA.AperFunction,Plated,PTH,ComponentDrill
T5C0.0433
%
G90
G05
T1
X4.0Y-4.0
T2
X4.5Y-3.475
X4.55Y-3.425
X4.6Y-3.475
T3
X3.85Y-3.3
X3.85Y-3.7
X3.975Y-3.3
X3.9754Y-3.4754
X3.9754Y-3.5754
X3.9754Y-3.6754
X3.9754Y-3.7754
X4.2Y-3.15
X4.2754Y-3.4754
X4.2754Y-3.5754
X4.2754Y-3.6754
X4.2754Y-3.7754
X4.375Y-3.3
X4.55Y-3.825
X4.55Y-3.9234
X4.55Y-4.075
X4.55Y-4.1734
X4.6Y-3.15
X4.7Y-3.8
X4.7Y-4.2
X4.7624Y-3.225
X4.7624Y-3.475
X4.8411Y-3.225
X4.8411Y-3.475
X4.85Y-3.8
X4.85Y-4.2
T4
X3.875Y-3.95
X3.875Y-4.05
X3.875Y-4.15
T5
X4.1441Y-3.975
X4.1441Y-4.1522
X4.4Y-3.975
X4.4Y-4.1522
T0
M30
