%TF.GenerationSoftware,KiCad,Pcbnew,7.0.1-0*%
%TF.CreationDate,2023-04-05T17:24:46+02:00*%
%TF.ProjectId,_autosave-wind_down_timer,5f617574-6f73-4617-9665-2d77696e645f,rev?*%
%TF.SameCoordinates,Original*%
%TF.FileFunction,Copper,L1,Top*%
%TF.FilePolarity,Positive*%
%FSLAX46Y46*%
G04 Gerber Fmt 4.6, Leading zero omitted, Abs format (unit mm)*
G04 Created by KiCad (PCBNEW 7.0.1-0) date 2023-04-05 17:24:46*
%MOMM*%
%LPD*%
G01*
G04 APERTURE LIST*
G04 Aperture macros list*
%AMRoundRect*
0 Rectangle with rounded corners*
0 $1 Rounding radius*
0 $2 $3 $4 $5 $6 $7 $8 $9 X,Y pos of 4 corners*
0 Add a 4 corners polygon primitive as box body*
4,1,4,$2,$3,$4,$5,$6,$7,$8,$9,$2,$3,0*
0 Add four circle primitives for the rounded corners*
1,1,$1+$1,$2,$3*
1,1,$1+$1,$4,$5*
1,1,$1+$1,$6,$7*
1,1,$1+$1,$8,$9*
0 Add four rect primitives between the rounded corners*
20,1,$1+$1,$2,$3,$4,$5,0*
20,1,$1+$1,$4,$5,$6,$7,0*
20,1,$1+$1,$6,$7,$8,$9,0*
20,1,$1+$1,$8,$9,$2,$3,0*%
G04 Aperture macros list end*
%TA.AperFunction,ComponentPad*%
%ADD10C,1.600000*%
%TD*%
%TA.AperFunction,ComponentPad*%
%ADD11O,1.600000X1.600000*%
%TD*%
%TA.AperFunction,ComponentPad*%
%ADD12R,1.600000X1.600000*%
%TD*%
%TA.AperFunction,ComponentPad*%
%ADD13R,1.100000X1.800000*%
%TD*%
%TA.AperFunction,ComponentPad*%
%ADD14RoundRect,0.275000X-0.275000X-0.625000X0.275000X-0.625000X0.275000X0.625000X-0.275000X0.625000X0*%
%TD*%
%TA.AperFunction,ComponentPad*%
%ADD15C,2.000000*%
%TD*%
%TA.AperFunction,ComponentPad*%
%ADD16R,1.700000X1.700000*%
%TD*%
%TA.AperFunction,ComponentPad*%
%ADD17O,1.700000X1.700000*%
%TD*%
%TA.AperFunction,ViaPad*%
%ADD18C,0.600000*%
%TD*%
%TA.AperFunction,Conductor*%
%ADD19C,0.200000*%
%TD*%
%TA.AperFunction,Conductor*%
%ADD20C,0.250000*%
%TD*%
G04 APERTURE END LIST*
D10*
%TO.P,R5,1*%
%TO.N,VCC*%
X106680000Y-80010000D03*
D11*
%TO.P,R5,2*%
%TO.N,Net-(C4-Pad1)*%
X116840000Y-80010000D03*
%TD*%
D10*
%TO.P,R2,1*%
%TO.N,Net-(U1-DIS)*%
X119380000Y-106680000D03*
D11*
%TO.P,R2,2*%
%TO.N,Net-(U1-THR)*%
X119380000Y-96520000D03*
%TD*%
D12*
%TO.P,C4,1*%
%TO.N,Net-(C4-Pad1)*%
X120964888Y-81915000D03*
D10*
%TO.P,C4,2*%
%TO.N,Net-(C3-Pad2)*%
X122964888Y-81915000D03*
%TD*%
%TO.P,R3,1*%
%TO.N,VCC*%
X97790000Y-93980000D03*
D11*
%TO.P,R3,2*%
%TO.N,Net-(Q1-B)*%
X97790000Y-83820000D03*
%TD*%
D10*
%TO.P,C1,1*%
%TO.N,Net-(U1-CV)*%
X115570000Y-106005000D03*
%TO.P,C1,2*%
%TO.N,GND*%
X115570000Y-103505000D03*
%TD*%
D12*
%TO.P,C3,1*%
%TO.N,VCC*%
X120964888Y-88265000D03*
D10*
%TO.P,C3,2*%
%TO.N,Net-(C3-Pad2)*%
X122964888Y-88265000D03*
%TD*%
%TO.P,R4,1*%
%TO.N,Net-(Q1-B)*%
X100965000Y-83820000D03*
D11*
%TO.P,R4,2*%
%TO.N,Net-(C3-Pad2)*%
X111125000Y-83820000D03*
%TD*%
D10*
%TO.P,R1,1*%
%TO.N,Net-(Q1-C)*%
X123190000Y-96520000D03*
D11*
%TO.P,R1,2*%
%TO.N,Net-(U1-DIS)*%
X123190000Y-106680000D03*
%TD*%
D13*
%TO.P,Q1,1,E*%
%TO.N,VCC*%
X114300000Y-88665000D03*
D14*
%TO.P,Q1,2,B*%
%TO.N,Net-(Q1-B)*%
X115570000Y-86595000D03*
%TO.P,Q1,3,C*%
%TO.N,Net-(Q1-C)*%
X116840000Y-88665000D03*
%TD*%
D15*
%TO.P,SW1,1,1*%
%TO.N,Net-(C3-Pad2)*%
X105260000Y-100965000D03*
X111760000Y-100965000D03*
%TO.P,SW1,2,2*%
%TO.N,GND*%
X105260000Y-105465000D03*
X111760000Y-105465000D03*
%TD*%
D16*
%TO.P,J1,1,Pin_1*%
%TO.N,/Out*%
X98425000Y-105410000D03*
D17*
%TO.P,J1,2,Pin_2*%
%TO.N,GND*%
X98425000Y-102870000D03*
%TO.P,J1,3,Pin_3*%
%TO.N,VCC*%
X98425000Y-100330000D03*
%TD*%
D10*
%TO.P,C2,1*%
%TO.N,Net-(U1-THR)*%
X115570000Y-99655000D03*
%TO.P,C2,2*%
%TO.N,GND*%
X115570000Y-97155000D03*
%TD*%
D12*
%TO.P,U1,1,GND*%
%TO.N,GND*%
X100975000Y-88275000D03*
D11*
%TO.P,U1,2,TR*%
%TO.N,Net-(U1-THR)*%
X100975000Y-90815000D03*
%TO.P,U1,3,Q*%
%TO.N,/Out*%
X100975000Y-93355000D03*
%TO.P,U1,4,R*%
%TO.N,VCC*%
X100975000Y-95895000D03*
%TO.P,U1,5,CV*%
%TO.N,Net-(U1-CV)*%
X108595000Y-95895000D03*
%TO.P,U1,6,THR*%
%TO.N,Net-(U1-THR)*%
X108595000Y-93355000D03*
%TO.P,U1,7,DIS*%
%TO.N,Net-(U1-DIS)*%
X108595000Y-90815000D03*
%TO.P,U1,8,VCC*%
%TO.N,VCC*%
X108595000Y-88275000D03*
%TD*%
D18*
%TO.N,/Out*%
X101600000Y-101600000D03*
%TD*%
D19*
%TO.N,Net-(C3-Pad2)*%
X105260000Y-100965000D02*
X111760000Y-100965000D01*
%TO.N,Net-(U1-CV)*%
X114895000Y-106680000D02*
X114300000Y-106680000D01*
X115570000Y-106005000D02*
X114895000Y-106680000D01*
X114300000Y-101600000D02*
X108595000Y-95895000D01*
X114300000Y-106680000D02*
X114300000Y-101600000D01*
%TO.N,Net-(C4-Pad1)*%
X116840000Y-80010000D02*
X119059888Y-80010000D01*
X119059888Y-80010000D02*
X120964888Y-81915000D01*
%TO.N,/Out*%
X101600000Y-101600000D02*
X101600000Y-102235000D01*
X101600000Y-102235000D02*
X98425000Y-105410000D01*
D20*
%TO.N,Net-(Q1-C)*%
X119380000Y-92710000D02*
X119380000Y-90805000D01*
X119380000Y-90805000D02*
X116840000Y-88265000D01*
X123190000Y-96520000D02*
X119380000Y-92710000D01*
%TO.N,Net-(U1-DIS)*%
X119380000Y-106680000D02*
X123190000Y-106680000D01*
%TO.N,Net-(U1-THR)*%
X119380000Y-96520000D02*
X116245000Y-99655000D01*
X116245000Y-99655000D02*
X115570000Y-99655000D01*
X106055000Y-90815000D02*
X108595000Y-93355000D01*
X108595000Y-93355000D02*
X114895000Y-99655000D01*
X100975000Y-90815000D02*
X106055000Y-90815000D01*
X114895000Y-99655000D02*
X115570000Y-99655000D01*
%TO.N,VCC*%
X114290000Y-88275000D02*
X114300000Y-88265000D01*
X108595000Y-88275000D02*
X114290000Y-88275000D01*
%TO.N,Net-(Q1-B)*%
X100965000Y-83820000D02*
X104140000Y-86995000D01*
X97790000Y-83820000D02*
X100965000Y-83820000D01*
X104140000Y-86995000D02*
X115570000Y-86995000D01*
%TO.N,Net-(C3-Pad2)*%
X111125000Y-83820000D02*
X122191258Y-83820000D01*
X122191258Y-83820000D02*
X122964888Y-83046370D01*
X122964888Y-88265000D02*
X122964888Y-81915000D01*
X122964888Y-83046370D02*
X122964888Y-81915000D01*
%TD*%
%TA.AperFunction,Conductor*%
%TO.N,VCC*%
G36*
X126437500Y-76717113D02*
G01*
X126482887Y-76762500D01*
X126499500Y-76824500D01*
X126499500Y-108595500D01*
X126482887Y-108657500D01*
X126437500Y-108702887D01*
X126375500Y-108719500D01*
X94604500Y-108719500D01*
X94542500Y-108702887D01*
X94497113Y-108657500D01*
X94480500Y-108595500D01*
X94480500Y-102869999D01*
X97069340Y-102869999D01*
X97089936Y-103105407D01*
X97133967Y-103269731D01*
X97151097Y-103333663D01*
X97250965Y-103547830D01*
X97386505Y-103741401D01*
X97386508Y-103741404D01*
X97508430Y-103863326D01*
X97539726Y-103916072D01*
X97541915Y-103977365D01*
X97514462Y-104032209D01*
X97464083Y-104067189D01*
X97332669Y-104116204D01*
X97217454Y-104202454D01*
X97131204Y-104317668D01*
X97116436Y-104357262D01*
X97080909Y-104452517D01*
X97075262Y-104505046D01*
X97074500Y-104512130D01*
X97074500Y-106307869D01*
X97080909Y-106367483D01*
X97131204Y-106502331D01*
X97217454Y-106617546D01*
X97332669Y-106703796D01*
X97467517Y-106754091D01*
X97527127Y-106760500D01*
X99322872Y-106760499D01*
X99382483Y-106754091D01*
X99517331Y-106703796D01*
X99632546Y-106617546D01*
X99718796Y-106502331D01*
X99769091Y-106367483D01*
X99775500Y-106307873D01*
X99775499Y-105465000D01*
X103754356Y-105465000D01*
X103774891Y-105712816D01*
X103774891Y-105712819D01*
X103774892Y-105712821D01*
X103835937Y-105953881D01*
X103856879Y-106001623D01*
X103935825Y-106181604D01*
X103935827Y-106181607D01*
X104071836Y-106389785D01*
X104240256Y-106572738D01*
X104240259Y-106572740D01*
X104436485Y-106725470D01*
X104436487Y-106725471D01*
X104436491Y-106725474D01*
X104655190Y-106843828D01*
X104890386Y-106924571D01*
X105135665Y-106965500D01*
X105384335Y-106965500D01*
X105629614Y-106924571D01*
X105864810Y-106843828D01*
X106083509Y-106725474D01*
X106279744Y-106572738D01*
X106448164Y-106389785D01*
X106584173Y-106181607D01*
X106684063Y-105953881D01*
X106745108Y-105712821D01*
X106765643Y-105465000D01*
X110254356Y-105465000D01*
X110274891Y-105712816D01*
X110274891Y-105712819D01*
X110274892Y-105712821D01*
X110335937Y-105953881D01*
X110356879Y-106001623D01*
X110435825Y-106181604D01*
X110435827Y-106181607D01*
X110571836Y-106389785D01*
X110740256Y-106572738D01*
X110740259Y-106572740D01*
X110936485Y-106725470D01*
X110936487Y-106725471D01*
X110936491Y-106725474D01*
X111155190Y-106843828D01*
X111390386Y-106924571D01*
X111635665Y-106965500D01*
X111884335Y-106965500D01*
X112129614Y-106924571D01*
X112364810Y-106843828D01*
X112583509Y-106725474D01*
X112779744Y-106572738D01*
X112948164Y-106389785D01*
X113084173Y-106181607D01*
X113184063Y-105953881D01*
X113245108Y-105712821D01*
X113265643Y-105465000D01*
X113245108Y-105217179D01*
X113184063Y-104976119D01*
X113084173Y-104748393D01*
X112948164Y-104540215D01*
X112779744Y-104357262D01*
X112728874Y-104317668D01*
X112583514Y-104204529D01*
X112583510Y-104204526D01*
X112583509Y-104204526D01*
X112364810Y-104086172D01*
X112364806Y-104086170D01*
X112364805Y-104086170D01*
X112129615Y-104005429D01*
X111884335Y-103964500D01*
X111635665Y-103964500D01*
X111390384Y-104005429D01*
X111155194Y-104086170D01*
X110936485Y-104204529D01*
X110740259Y-104357259D01*
X110740256Y-104357261D01*
X110740256Y-104357262D01*
X110597693Y-104512127D01*
X110571837Y-104540214D01*
X110435825Y-104748395D01*
X110380541Y-104874432D01*
X110335937Y-104976119D01*
X110287888Y-105165859D01*
X110274891Y-105217183D01*
X110254356Y-105465000D01*
X106765643Y-105465000D01*
X106745108Y-105217179D01*
X106684063Y-104976119D01*
X106584173Y-104748393D01*
X106448164Y-104540215D01*
X106279744Y-104357262D01*
X106228874Y-104317668D01*
X106083514Y-104204529D01*
X106083510Y-104204526D01*
X106083509Y-104204526D01*
X105864810Y-104086172D01*
X105864806Y-104086170D01*
X105864805Y-104086170D01*
X105629615Y-104005429D01*
X105384335Y-103964500D01*
X105135665Y-103964500D01*
X104890384Y-104005429D01*
X104655194Y-104086170D01*
X104436485Y-104204529D01*
X104240259Y-104357259D01*
X104240256Y-104357261D01*
X104240256Y-104357262D01*
X104097693Y-104512127D01*
X104071837Y-104540214D01*
X103935825Y-104748395D01*
X103880541Y-104874432D01*
X103835937Y-104976119D01*
X103787888Y-105165859D01*
X103774891Y-105217183D01*
X103754356Y-105465000D01*
X99775499Y-105465000D01*
X99775499Y-104960095D01*
X99784938Y-104912643D01*
X99811815Y-104872418D01*
X101991043Y-102693190D01*
X102003223Y-102682509D01*
X102028282Y-102663282D01*
X102124536Y-102537841D01*
X102185044Y-102391762D01*
X102200500Y-102274361D01*
X102205682Y-102235000D01*
X102201560Y-102203697D01*
X102200500Y-102187513D01*
X102200500Y-102182941D01*
X102209939Y-102135488D01*
X102223687Y-102114911D01*
X102222383Y-102114092D01*
X102248689Y-102072226D01*
X102325789Y-101949522D01*
X102385368Y-101779255D01*
X102405565Y-101600000D01*
X102385368Y-101420745D01*
X102325789Y-101250478D01*
X102229816Y-101097738D01*
X102229815Y-101097737D01*
X102229814Y-101097735D01*
X102102264Y-100970185D01*
X102039867Y-100930979D01*
X101949522Y-100874211D01*
X101779255Y-100814632D01*
X101779253Y-100814631D01*
X101779251Y-100814631D01*
X101600000Y-100794434D01*
X101420748Y-100814631D01*
X101420745Y-100814631D01*
X101420745Y-100814632D01*
X101250478Y-100874211D01*
X101250476Y-100874211D01*
X101250476Y-100874212D01*
X101097735Y-100970185D01*
X100970185Y-101097735D01*
X100874212Y-101250476D01*
X100814631Y-101420748D01*
X100794434Y-101600000D01*
X100814631Y-101779251D01*
X100814631Y-101779253D01*
X100814632Y-101779255D01*
X100867616Y-101930677D01*
X100874212Y-101949525D01*
X100884125Y-101965301D01*
X100902350Y-102017389D01*
X100896171Y-102072226D01*
X100866811Y-102118952D01*
X99989432Y-102996331D01*
X99938005Y-103027232D01*
X99878090Y-103030372D01*
X99823714Y-103005015D01*
X99787608Y-102957099D01*
X99778223Y-102897841D01*
X99780659Y-102869998D01*
X99760063Y-102634592D01*
X99734139Y-102537841D01*
X99698903Y-102406337D01*
X99599035Y-102192171D01*
X99463495Y-101998599D01*
X99296401Y-101831505D01*
X99110402Y-101701267D01*
X99071539Y-101656951D01*
X99057528Y-101599694D01*
X99071539Y-101542437D01*
X99110405Y-101498119D01*
X99296078Y-101368109D01*
X99463106Y-101201081D01*
X99598600Y-101007576D01*
X99698430Y-100793492D01*
X99755636Y-100580000D01*
X97094364Y-100580000D01*
X97151569Y-100793492D01*
X97251399Y-101007576D01*
X97386893Y-101201081D01*
X97553918Y-101368106D01*
X97739595Y-101498119D01*
X97778460Y-101542437D01*
X97792471Y-101599694D01*
X97778460Y-101656951D01*
X97739595Y-101701269D01*
X97553595Y-101831508D01*
X97386505Y-101998598D01*
X97250965Y-102192170D01*
X97151097Y-102406336D01*
X97089936Y-102634592D01*
X97069340Y-102869999D01*
X94480500Y-102869999D01*
X94480500Y-100080000D01*
X97094364Y-100080000D01*
X98175000Y-100080000D01*
X98175000Y-98999364D01*
X98675000Y-98999364D01*
X98675000Y-100080000D01*
X99755636Y-100080000D01*
X99755635Y-100079999D01*
X99698430Y-99866507D01*
X99598599Y-99652421D01*
X99463109Y-99458921D01*
X99296081Y-99291893D01*
X99102576Y-99156399D01*
X98888492Y-99056569D01*
X98675000Y-98999364D01*
X98175000Y-98999364D01*
X98174999Y-98999364D01*
X97961507Y-99056569D01*
X97747421Y-99156400D01*
X97553921Y-99291890D01*
X97386890Y-99458921D01*
X97251400Y-99652421D01*
X97151569Y-99866507D01*
X97094364Y-100079999D01*
X97094364Y-100080000D01*
X94480500Y-100080000D01*
X94480500Y-96145000D01*
X99696128Y-96145000D01*
X99748733Y-96341326D01*
X99844865Y-96547480D01*
X99975341Y-96733819D01*
X100136180Y-96894658D01*
X100322519Y-97025134D01*
X100528673Y-97121266D01*
X100724999Y-97173871D01*
X100725000Y-97173872D01*
X100725000Y-96145000D01*
X101225000Y-96145000D01*
X101225000Y-97173871D01*
X101421326Y-97121266D01*
X101627480Y-97025134D01*
X101813819Y-96894658D01*
X101974658Y-96733819D01*
X102105134Y-96547480D01*
X102201266Y-96341326D01*
X102253872Y-96145000D01*
X101225000Y-96145000D01*
X100725000Y-96145000D01*
X99696128Y-96145000D01*
X94480500Y-96145000D01*
X94480500Y-95059026D01*
X97064526Y-95059026D01*
X97137515Y-95110133D01*
X97343673Y-95206266D01*
X97563397Y-95265141D01*
X97790000Y-95284966D01*
X98016602Y-95265141D01*
X98236326Y-95206266D01*
X98442480Y-95110134D01*
X98515472Y-95059025D01*
X97790001Y-94333553D01*
X97790000Y-94333553D01*
X97064526Y-95059025D01*
X97064526Y-95059026D01*
X94480500Y-95059026D01*
X94480500Y-93980000D01*
X96485033Y-93980000D01*
X96504858Y-94206602D01*
X96563733Y-94426326D01*
X96659866Y-94632484D01*
X96710972Y-94705471D01*
X96710974Y-94705472D01*
X97436446Y-93980001D01*
X98143553Y-93980001D01*
X98869025Y-94705472D01*
X98920134Y-94632480D01*
X99016266Y-94426326D01*
X99075141Y-94206602D01*
X99094966Y-93980000D01*
X99075141Y-93753397D01*
X99016266Y-93533673D01*
X98932949Y-93355000D01*
X99669531Y-93355000D01*
X99689364Y-93581689D01*
X99748261Y-93801497D01*
X99844432Y-94007735D01*
X99974953Y-94194140D01*
X100135859Y-94355046D01*
X100322264Y-94485567D01*
X100322265Y-94485567D01*
X100322266Y-94485568D01*
X100380865Y-94512893D01*
X100433040Y-94558650D01*
X100452460Y-94625274D01*
X100433041Y-94691899D01*
X100380866Y-94737656D01*
X100322522Y-94764863D01*
X100136180Y-94895341D01*
X99975341Y-95056180D01*
X99844865Y-95242519D01*
X99748733Y-95448673D01*
X99696128Y-95644999D01*
X99696128Y-95645000D01*
X102253872Y-95645000D01*
X102253871Y-95644999D01*
X102201266Y-95448673D01*
X102105134Y-95242519D01*
X101974658Y-95056180D01*
X101813819Y-94895341D01*
X101627482Y-94764866D01*
X101569133Y-94737657D01*
X101516958Y-94691899D01*
X101497539Y-94625274D01*
X101516959Y-94558649D01*
X101569134Y-94512893D01*
X101627734Y-94485568D01*
X101814139Y-94355047D01*
X101975047Y-94194139D01*
X102105568Y-94007734D01*
X102201739Y-93801496D01*
X102260635Y-93581692D01*
X102280468Y-93355000D01*
X102260635Y-93128308D01*
X102201739Y-92908504D01*
X102105568Y-92702266D01*
X102086499Y-92675033D01*
X101975046Y-92515859D01*
X101814140Y-92354953D01*
X101627733Y-92224431D01*
X101569725Y-92197382D01*
X101517549Y-92151625D01*
X101498129Y-92085000D01*
X101517549Y-92018375D01*
X101569725Y-91972618D01*
X101627734Y-91945568D01*
X101814139Y-91815047D01*
X101975047Y-91654139D01*
X102087612Y-91493377D01*
X102131931Y-91454511D01*
X102189188Y-91440500D01*
X105744548Y-91440500D01*
X105792001Y-91449939D01*
X105832229Y-91476819D01*
X107295586Y-92940177D01*
X107327680Y-92995764D01*
X107327680Y-93059950D01*
X107309364Y-93128307D01*
X107289531Y-93355000D01*
X107309364Y-93581689D01*
X107368261Y-93801497D01*
X107464432Y-94007735D01*
X107594953Y-94194140D01*
X107755859Y-94355046D01*
X107857659Y-94426326D01*
X107942266Y-94485568D01*
X108000275Y-94512618D01*
X108052450Y-94558375D01*
X108071869Y-94625000D01*
X108052450Y-94691625D01*
X108000275Y-94737382D01*
X107942263Y-94764433D01*
X107755859Y-94894953D01*
X107594953Y-95055859D01*
X107464432Y-95242264D01*
X107368261Y-95448502D01*
X107309364Y-95668310D01*
X107289531Y-95895000D01*
X107309364Y-96121689D01*
X107368261Y-96341497D01*
X107464432Y-96547735D01*
X107594953Y-96734140D01*
X107755859Y-96895046D01*
X107942264Y-97025567D01*
X107942265Y-97025567D01*
X107942266Y-97025568D01*
X108148504Y-97121739D01*
X108368308Y-97180635D01*
X108595000Y-97200468D01*
X108821692Y-97180635D01*
X108917933Y-97154847D01*
X108982118Y-97154847D01*
X109037706Y-97186941D01*
X111224469Y-99373704D01*
X111255992Y-99427233D01*
X111257597Y-99489333D01*
X111228882Y-99544419D01*
X111177054Y-99578665D01*
X111155195Y-99586169D01*
X110936485Y-99704529D01*
X110740259Y-99857259D01*
X110740256Y-99857261D01*
X110740256Y-99857262D01*
X110628789Y-99978348D01*
X110571837Y-100040214D01*
X110435825Y-100248395D01*
X110417440Y-100290310D01*
X110390349Y-100329381D01*
X110350546Y-100355385D01*
X110303884Y-100364500D01*
X106716116Y-100364500D01*
X106669454Y-100355385D01*
X106629651Y-100329381D01*
X106602560Y-100290310D01*
X106584174Y-100248395D01*
X106584173Y-100248393D01*
X106448164Y-100040215D01*
X106279744Y-99857262D01*
X106257612Y-99840036D01*
X106083514Y-99704529D01*
X106083510Y-99704526D01*
X106083509Y-99704526D01*
X105864810Y-99586172D01*
X105864806Y-99586170D01*
X105864805Y-99586170D01*
X105629615Y-99505429D01*
X105384335Y-99464500D01*
X105135665Y-99464500D01*
X104890384Y-99505429D01*
X104655194Y-99586170D01*
X104436485Y-99704529D01*
X104240259Y-99857259D01*
X104240256Y-99857261D01*
X104240256Y-99857262D01*
X104128789Y-99978348D01*
X104071837Y-100040214D01*
X103935825Y-100248395D01*
X103845780Y-100453678D01*
X103835937Y-100476119D01*
X103809631Y-100580000D01*
X103774891Y-100717183D01*
X103754356Y-100965000D01*
X103774891Y-101212816D01*
X103774891Y-101212819D01*
X103774892Y-101212821D01*
X103835937Y-101453881D01*
X103872075Y-101536268D01*
X103935825Y-101681604D01*
X103935827Y-101681607D01*
X104071836Y-101889785D01*
X104240256Y-102072738D01*
X104293388Y-102114092D01*
X104436485Y-102225470D01*
X104436487Y-102225471D01*
X104436491Y-102225474D01*
X104655190Y-102343828D01*
X104890386Y-102424571D01*
X105135665Y-102465500D01*
X105384335Y-102465500D01*
X105629614Y-102424571D01*
X105864810Y-102343828D01*
X106083509Y-102225474D01*
X106279744Y-102072738D01*
X106448164Y-101889785D01*
X106584173Y-101681607D01*
X106594988Y-101656951D01*
X106602560Y-101639690D01*
X106629651Y-101600619D01*
X106669454Y-101574615D01*
X106716116Y-101565500D01*
X110303884Y-101565500D01*
X110350546Y-101574615D01*
X110390349Y-101600619D01*
X110417440Y-101639690D01*
X110435825Y-101681604D01*
X110435827Y-101681607D01*
X110571836Y-101889785D01*
X110740256Y-102072738D01*
X110793388Y-102114092D01*
X110936485Y-102225470D01*
X110936487Y-102225471D01*
X110936491Y-102225474D01*
X111155190Y-102343828D01*
X111390386Y-102424571D01*
X111635665Y-102465500D01*
X111884335Y-102465500D01*
X112129614Y-102424571D01*
X112364810Y-102343828D01*
X112583509Y-102225474D01*
X112779744Y-102072738D01*
X112948164Y-101889785D01*
X113084173Y-101681607D01*
X113147925Y-101536265D01*
X113184310Y-101489016D01*
X113238546Y-101464216D01*
X113298088Y-101467604D01*
X113349161Y-101498396D01*
X113663181Y-101812416D01*
X113690061Y-101852644D01*
X113699500Y-101900097D01*
X113699500Y-106632513D01*
X113698439Y-106648699D01*
X113694317Y-106680000D01*
X113699500Y-106719360D01*
X113699500Y-106719361D01*
X113714956Y-106836762D01*
X113775463Y-106982840D01*
X113871717Y-107108282D01*
X113997159Y-107204536D01*
X114143238Y-107265044D01*
X114268698Y-107281561D01*
X114299999Y-107285682D01*
X114299999Y-107285681D01*
X114300000Y-107285682D01*
X114331302Y-107281560D01*
X114347487Y-107280500D01*
X114847513Y-107280500D01*
X114863697Y-107281560D01*
X114895000Y-107285682D01*
X115051762Y-107265044D01*
X115089874Y-107249256D01*
X115129217Y-107240083D01*
X115169420Y-107244041D01*
X115343308Y-107290635D01*
X115570000Y-107310468D01*
X115796692Y-107290635D01*
X116016496Y-107231739D01*
X116222734Y-107135568D01*
X116409139Y-107005047D01*
X116570047Y-106844139D01*
X116684978Y-106679999D01*
X118074531Y-106679999D01*
X118094364Y-106906689D01*
X118153261Y-107126497D01*
X118249432Y-107332735D01*
X118379953Y-107519140D01*
X118540859Y-107680046D01*
X118727264Y-107810567D01*
X118727265Y-107810567D01*
X118727266Y-107810568D01*
X118933504Y-107906739D01*
X119153308Y-107965635D01*
X119380000Y-107985468D01*
X119606692Y-107965635D01*
X119826496Y-107906739D01*
X120032734Y-107810568D01*
X120219139Y-107680047D01*
X120380047Y-107519139D01*
X120492612Y-107358377D01*
X120536931Y-107319511D01*
X120594188Y-107305500D01*
X121975812Y-107305500D01*
X122033069Y-107319511D01*
X122077387Y-107358377D01*
X122189953Y-107519140D01*
X122350859Y-107680046D01*
X122537264Y-107810567D01*
X122537265Y-107810567D01*
X122537266Y-107810568D01*
X122743504Y-107906739D01*
X122963308Y-107965635D01*
X123190000Y-107985468D01*
X123416692Y-107965635D01*
X123636496Y-107906739D01*
X123842734Y-107810568D01*
X124029139Y-107680047D01*
X124190047Y-107519139D01*
X124320568Y-107332734D01*
X124416739Y-107126496D01*
X124475635Y-106906692D01*
X124495468Y-106680000D01*
X124475635Y-106453308D01*
X124416739Y-106233504D01*
X124320568Y-106027266D01*
X124304977Y-106005000D01*
X124190046Y-105840859D01*
X124029140Y-105679953D01*
X123842735Y-105549432D01*
X123636497Y-105453261D01*
X123416689Y-105394364D01*
X123190000Y-105374531D01*
X122963310Y-105394364D01*
X122743502Y-105453261D01*
X122537264Y-105549432D01*
X122350859Y-105679953D01*
X122189953Y-105840859D01*
X122077387Y-106001623D01*
X122033069Y-106040489D01*
X121975812Y-106054500D01*
X120594188Y-106054500D01*
X120536931Y-106040489D01*
X120492613Y-106001623D01*
X120380046Y-105840859D01*
X120219140Y-105679953D01*
X120032735Y-105549432D01*
X119826497Y-105453261D01*
X119606689Y-105394364D01*
X119380000Y-105374531D01*
X119153310Y-105394364D01*
X118933502Y-105453261D01*
X118727264Y-105549432D01*
X118540859Y-105679953D01*
X118379953Y-105840859D01*
X118249432Y-106027264D01*
X118153261Y-106233502D01*
X118094364Y-106453310D01*
X118074531Y-106679999D01*
X116684978Y-106679999D01*
X116700568Y-106657734D01*
X116796739Y-106451496D01*
X116855635Y-106231692D01*
X116875468Y-106005000D01*
X116855635Y-105778308D01*
X116796739Y-105558504D01*
X116700568Y-105352266D01*
X116570047Y-105165861D01*
X116570046Y-105165859D01*
X116409140Y-105004953D01*
X116222738Y-104874434D01*
X116222734Y-104874432D01*
X116207612Y-104867380D01*
X116155439Y-104821626D01*
X116136019Y-104755000D01*
X116155439Y-104688374D01*
X116207612Y-104642619D01*
X116222734Y-104635568D01*
X116409139Y-104505047D01*
X116570047Y-104344139D01*
X116700568Y-104157734D01*
X116796739Y-103951496D01*
X116855635Y-103731692D01*
X116875468Y-103505000D01*
X116855635Y-103278308D01*
X116796739Y-103058504D01*
X116700568Y-102852266D01*
X116589188Y-102693198D01*
X116570046Y-102665859D01*
X116409140Y-102504953D01*
X116222735Y-102374432D01*
X116016497Y-102278261D01*
X115796689Y-102219364D01*
X115570000Y-102199531D01*
X115343310Y-102219364D01*
X115123499Y-102278262D01*
X115076904Y-102299990D01*
X115016390Y-102311342D01*
X114957875Y-102292188D01*
X114915786Y-102247251D01*
X114900500Y-102187608D01*
X114900500Y-101647487D01*
X114901561Y-101631301D01*
X114905682Y-101600000D01*
X114885044Y-101443238D01*
X114824536Y-101297159D01*
X114823245Y-101295477D01*
X114728282Y-101171717D01*
X114703229Y-101152494D01*
X114691034Y-101141799D01*
X109886941Y-96337706D01*
X109854847Y-96282118D01*
X109854847Y-96217933D01*
X109880635Y-96121692D01*
X109900468Y-95895000D01*
X109896610Y-95850897D01*
X109905995Y-95791639D01*
X109942102Y-95743724D01*
X109996478Y-95718368D01*
X110056392Y-95721508D01*
X110107818Y-95752408D01*
X112349548Y-97994139D01*
X114278169Y-99922760D01*
X114310263Y-99978347D01*
X114343261Y-100101497D01*
X114439432Y-100307735D01*
X114569953Y-100494140D01*
X114730859Y-100655046D01*
X114917264Y-100785567D01*
X114917265Y-100785567D01*
X114917266Y-100785568D01*
X115123504Y-100881739D01*
X115343308Y-100940635D01*
X115570000Y-100960468D01*
X115796692Y-100940635D01*
X116016496Y-100881739D01*
X116222734Y-100785568D01*
X116409139Y-100655047D01*
X116570047Y-100494139D01*
X116700568Y-100307734D01*
X116796739Y-100101496D01*
X116829736Y-99978345D01*
X116861827Y-99922761D01*
X118965178Y-97819410D01*
X119020764Y-97787318D01*
X119084947Y-97787318D01*
X119153308Y-97805635D01*
X119380000Y-97825468D01*
X119606692Y-97805635D01*
X119826496Y-97746739D01*
X120032734Y-97650568D01*
X120219139Y-97520047D01*
X120380047Y-97359139D01*
X120510568Y-97172734D01*
X120606739Y-96966496D01*
X120665635Y-96746692D01*
X120685468Y-96520000D01*
X120665635Y-96293308D01*
X120606739Y-96073504D01*
X120510568Y-95867266D01*
X120499106Y-95850897D01*
X120380046Y-95680859D01*
X120219140Y-95519953D01*
X120032735Y-95389432D01*
X119826497Y-95293261D01*
X119606689Y-95234364D01*
X119380000Y-95214531D01*
X119153310Y-95234364D01*
X118933502Y-95293261D01*
X118727264Y-95389432D01*
X118540859Y-95519953D01*
X118379953Y-95680859D01*
X118249432Y-95867264D01*
X118153261Y-96073502D01*
X118094364Y-96293310D01*
X118074531Y-96519999D01*
X118094364Y-96746690D01*
X118112680Y-96815047D01*
X118112680Y-96879234D01*
X118080586Y-96934821D01*
X116454077Y-98561330D01*
X116405400Y-98591355D01*
X116348425Y-98596340D01*
X116295273Y-98575224D01*
X116222737Y-98524434D01*
X116222736Y-98524433D01*
X116222734Y-98524432D01*
X116207612Y-98517380D01*
X116155439Y-98471626D01*
X116136019Y-98405000D01*
X116155439Y-98338374D01*
X116207612Y-98292619D01*
X116222734Y-98285568D01*
X116409139Y-98155047D01*
X116570047Y-97994139D01*
X116700568Y-97807734D01*
X116796739Y-97601496D01*
X116855635Y-97381692D01*
X116875468Y-97155000D01*
X116855635Y-96928308D01*
X116796739Y-96708504D01*
X116700568Y-96502266D01*
X116587997Y-96341497D01*
X116570046Y-96315859D01*
X116409140Y-96154953D01*
X116222735Y-96024432D01*
X116016497Y-95928261D01*
X115796689Y-95869364D01*
X115570000Y-95849531D01*
X115343310Y-95869364D01*
X115123502Y-95928261D01*
X114917264Y-96024432D01*
X114730859Y-96154953D01*
X114569953Y-96315859D01*
X114439432Y-96502264D01*
X114343261Y-96708502D01*
X114284364Y-96928310D01*
X114264531Y-97155000D01*
X114284364Y-97381689D01*
X114343261Y-97601497D01*
X114439432Y-97807735D01*
X114569953Y-97994140D01*
X114730859Y-98155046D01*
X114917262Y-98285565D01*
X114917266Y-98285568D01*
X114932383Y-98292617D01*
X114984558Y-98338372D01*
X115003979Y-98404996D01*
X114984562Y-98471621D01*
X114932388Y-98517379D01*
X114917269Y-98524429D01*
X114844724Y-98575225D01*
X114791573Y-98596340D01*
X114734598Y-98591355D01*
X114685921Y-98561330D01*
X109894413Y-93769822D01*
X109862319Y-93714234D01*
X109862319Y-93650047D01*
X109868643Y-93626446D01*
X109880635Y-93581692D01*
X109900468Y-93355000D01*
X109880635Y-93128308D01*
X109821739Y-92908504D01*
X109725568Y-92702266D01*
X109706499Y-92675033D01*
X109595046Y-92515859D01*
X109434140Y-92354953D01*
X109247733Y-92224431D01*
X109189725Y-92197382D01*
X109137549Y-92151625D01*
X109118129Y-92085000D01*
X109137549Y-92018375D01*
X109189725Y-91972618D01*
X109247734Y-91945568D01*
X109434139Y-91815047D01*
X109595047Y-91654139D01*
X109725568Y-91467734D01*
X109821739Y-91261496D01*
X109880635Y-91041692D01*
X109900468Y-90815000D01*
X109880635Y-90588308D01*
X109821739Y-90368504D01*
X109725568Y-90162266D01*
X109657812Y-90065500D01*
X109595046Y-89975859D01*
X109434140Y-89814953D01*
X109247736Y-89684433D01*
X109221878Y-89672375D01*
X109189132Y-89657105D01*
X109136958Y-89611348D01*
X109117539Y-89544723D01*
X109136959Y-89478098D01*
X109189135Y-89432342D01*
X109247479Y-89405135D01*
X109433819Y-89274658D01*
X109594658Y-89113819D01*
X109725134Y-88927480D01*
X109730954Y-88915000D01*
X113250000Y-88915000D01*
X113250000Y-89612824D01*
X113256402Y-89672375D01*
X113306647Y-89807089D01*
X113392811Y-89922188D01*
X113507910Y-90008352D01*
X113642624Y-90058597D01*
X113702176Y-90065000D01*
X114050000Y-90065000D01*
X114050000Y-88915000D01*
X114550000Y-88915000D01*
X114550000Y-90065000D01*
X114897824Y-90065000D01*
X114957375Y-90058597D01*
X115092089Y-90008352D01*
X115207188Y-89922188D01*
X115293352Y-89807089D01*
X115343597Y-89672375D01*
X115350000Y-89612824D01*
X115350000Y-88915000D01*
X114550000Y-88915000D01*
X114050000Y-88915000D01*
X113250000Y-88915000D01*
X109730954Y-88915000D01*
X109821266Y-88721326D01*
X109873872Y-88525000D01*
X107316128Y-88525000D01*
X107368733Y-88721326D01*
X107464865Y-88927480D01*
X107595341Y-89113819D01*
X107756180Y-89274658D01*
X107942519Y-89405134D01*
X108000865Y-89432342D01*
X108053040Y-89478099D01*
X108072460Y-89544723D01*
X108053041Y-89611348D01*
X108000866Y-89657105D01*
X107942267Y-89684430D01*
X107755859Y-89814953D01*
X107594953Y-89975859D01*
X107464432Y-90162264D01*
X107368261Y-90368502D01*
X107309364Y-90588310D01*
X107289531Y-90815000D01*
X107293389Y-90859103D01*
X107284003Y-90918360D01*
X107247896Y-90966275D01*
X107193521Y-90991630D01*
X107133607Y-90988490D01*
X107082180Y-90957589D01*
X106555802Y-90431211D01*
X106542906Y-90415113D01*
X106491775Y-90367098D01*
X106488978Y-90364387D01*
X106469470Y-90344879D01*
X106466290Y-90342412D01*
X106457424Y-90334839D01*
X106425582Y-90304938D01*
X106408024Y-90295285D01*
X106391764Y-90284604D01*
X106375936Y-90272327D01*
X106335851Y-90254980D01*
X106325361Y-90249841D01*
X106287091Y-90228802D01*
X106267691Y-90223821D01*
X106249284Y-90217519D01*
X106230897Y-90209562D01*
X106187758Y-90202729D01*
X106176324Y-90200361D01*
X106134019Y-90189500D01*
X106113984Y-90189500D01*
X106094586Y-90187973D01*
X106087162Y-90186797D01*
X106074805Y-90184840D01*
X106074804Y-90184840D01*
X106041751Y-90187964D01*
X106031325Y-90188950D01*
X106019656Y-90189500D01*
X102189188Y-90189500D01*
X102131931Y-90175489D01*
X102087613Y-90136623D01*
X101975046Y-89975859D01*
X101814140Y-89814953D01*
X101789537Y-89797726D01*
X101750399Y-89752884D01*
X101736666Y-89694970D01*
X101751500Y-89637328D01*
X101791485Y-89593239D01*
X101847406Y-89572861D01*
X101882483Y-89569091D01*
X102017331Y-89518796D01*
X102132546Y-89432546D01*
X102218796Y-89317331D01*
X102269091Y-89182483D01*
X102275500Y-89122873D01*
X102275499Y-87427128D01*
X102269091Y-87367517D01*
X102218796Y-87232669D01*
X102132546Y-87117454D01*
X102017331Y-87031204D01*
X101882483Y-86980909D01*
X101822873Y-86974500D01*
X101822869Y-86974500D01*
X100127130Y-86974500D01*
X100067515Y-86980909D01*
X99932669Y-87031204D01*
X99817454Y-87117454D01*
X99731204Y-87232668D01*
X99680909Y-87367515D01*
X99680909Y-87367517D01*
X99674637Y-87425859D01*
X99674500Y-87427130D01*
X99674500Y-89122869D01*
X99679822Y-89172375D01*
X99680909Y-89182483D01*
X99731204Y-89317331D01*
X99817454Y-89432546D01*
X99932669Y-89518796D01*
X100067517Y-89569091D01*
X100102594Y-89572862D01*
X100158513Y-89593239D01*
X100198497Y-89637327D01*
X100213332Y-89694968D01*
X100199600Y-89752881D01*
X100160464Y-89797724D01*
X100135860Y-89814952D01*
X99974953Y-89975859D01*
X99844432Y-90162264D01*
X99748261Y-90368502D01*
X99689364Y-90588310D01*
X99669531Y-90815000D01*
X99689364Y-91041689D01*
X99748261Y-91261497D01*
X99844432Y-91467735D01*
X99974953Y-91654140D01*
X100135859Y-91815046D01*
X100322263Y-91945566D01*
X100322266Y-91945568D01*
X100380275Y-91972618D01*
X100432450Y-92018375D01*
X100451869Y-92085000D01*
X100432450Y-92151625D01*
X100380275Y-92197382D01*
X100322263Y-92224433D01*
X100135859Y-92354953D01*
X99974953Y-92515859D01*
X99844432Y-92702264D01*
X99748261Y-92908502D01*
X99689364Y-93128310D01*
X99669531Y-93355000D01*
X98932949Y-93355000D01*
X98920133Y-93327515D01*
X98869025Y-93254526D01*
X98143553Y-93980000D01*
X98143553Y-93980001D01*
X97436446Y-93980001D01*
X97436446Y-93980000D01*
X96710973Y-93254526D01*
X96710973Y-93254527D01*
X96659865Y-93327516D01*
X96563733Y-93533672D01*
X96504858Y-93753397D01*
X96485033Y-93980000D01*
X94480500Y-93980000D01*
X94480500Y-92900973D01*
X97064526Y-92900973D01*
X97789998Y-93626446D01*
X97789999Y-93626446D01*
X98515472Y-92900973D01*
X98515471Y-92900972D01*
X98442484Y-92849866D01*
X98236326Y-92753733D01*
X98016602Y-92694858D01*
X97789999Y-92675033D01*
X97563397Y-92694858D01*
X97343672Y-92753733D01*
X97137516Y-92849865D01*
X97064526Y-92900973D01*
X94480500Y-92900973D01*
X94480500Y-83820000D01*
X96484531Y-83820000D01*
X96504364Y-84046689D01*
X96563261Y-84266497D01*
X96659432Y-84472735D01*
X96789953Y-84659140D01*
X96950859Y-84820046D01*
X97137264Y-84950567D01*
X97137265Y-84950567D01*
X97137266Y-84950568D01*
X97343504Y-85046739D01*
X97563308Y-85105635D01*
X97714435Y-85118856D01*
X97789999Y-85125468D01*
X97789999Y-85125467D01*
X97790000Y-85125468D01*
X98016692Y-85105635D01*
X98236496Y-85046739D01*
X98442734Y-84950568D01*
X98629139Y-84820047D01*
X98790047Y-84659139D01*
X98902612Y-84498377D01*
X98946931Y-84459511D01*
X99004188Y-84445500D01*
X99750812Y-84445500D01*
X99808069Y-84459511D01*
X99852387Y-84498377D01*
X99964953Y-84659140D01*
X100125859Y-84820046D01*
X100312264Y-84950567D01*
X100312265Y-84950567D01*
X100312266Y-84950568D01*
X100518504Y-85046739D01*
X100738308Y-85105635D01*
X100889435Y-85118856D01*
X100964999Y-85125468D01*
X100964999Y-85125467D01*
X100965000Y-85125468D01*
X101191692Y-85105635D01*
X101260048Y-85087319D01*
X101324234Y-85087319D01*
X101379822Y-85119413D01*
X103639196Y-87378787D01*
X103652096Y-87394888D01*
X103654213Y-87396876D01*
X103654214Y-87396877D01*
X103703223Y-87442900D01*
X103706020Y-87445611D01*
X103725529Y-87465120D01*
X103728711Y-87467588D01*
X103737571Y-87475155D01*
X103769418Y-87505062D01*
X103786972Y-87514712D01*
X103803236Y-87525396D01*
X103814972Y-87534499D01*
X103819064Y-87537673D01*
X103843909Y-87548424D01*
X103859152Y-87555021D01*
X103869631Y-87560154D01*
X103907908Y-87581197D01*
X103927306Y-87586177D01*
X103945708Y-87592477D01*
X103964104Y-87600438D01*
X104007261Y-87607273D01*
X104018664Y-87609634D01*
X104060981Y-87620500D01*
X104081016Y-87620500D01*
X104100413Y-87622026D01*
X104120196Y-87625160D01*
X104163674Y-87621050D01*
X104175344Y-87620500D01*
X107271166Y-87620500D01*
X107330809Y-87635786D01*
X107375747Y-87677875D01*
X107394901Y-87736390D01*
X107383548Y-87796905D01*
X107368733Y-87828674D01*
X107316128Y-88024999D01*
X107316128Y-88025000D01*
X109873872Y-88025000D01*
X109873871Y-88024999D01*
X109821266Y-87828674D01*
X109806452Y-87796905D01*
X109795099Y-87736390D01*
X109814253Y-87677875D01*
X109859191Y-87635786D01*
X109918834Y-87620500D01*
X113126000Y-87620500D01*
X113188000Y-87637113D01*
X113233387Y-87682500D01*
X113250000Y-87744500D01*
X113250000Y-88415000D01*
X115350000Y-88415000D01*
X115350000Y-88119500D01*
X115366613Y-88057500D01*
X115412000Y-88012113D01*
X115474000Y-87995500D01*
X115665500Y-87995500D01*
X115727500Y-88012113D01*
X115772887Y-88057500D01*
X115789500Y-88119500D01*
X115789500Y-89333556D01*
X115804158Y-89463656D01*
X115861877Y-89628606D01*
X115954852Y-89776576D01*
X116078423Y-89900147D01*
X116226393Y-89993122D01*
X116391343Y-90050841D01*
X116521444Y-90065500D01*
X116521448Y-90065500D01*
X117158552Y-90065500D01*
X117158556Y-90065500D01*
X117262635Y-90053772D01*
X117288657Y-90050841D01*
X117453606Y-89993122D01*
X117511079Y-89957009D01*
X117563166Y-89938783D01*
X117618004Y-89944961D01*
X117664731Y-89974322D01*
X118718181Y-91027772D01*
X118745061Y-91068000D01*
X118754500Y-91115453D01*
X118754500Y-92627256D01*
X118752235Y-92647762D01*
X118754439Y-92717873D01*
X118754500Y-92721768D01*
X118754500Y-92749349D01*
X118755003Y-92753334D01*
X118755918Y-92764967D01*
X118757290Y-92808626D01*
X118762879Y-92827860D01*
X118766825Y-92846916D01*
X118769335Y-92866792D01*
X118785414Y-92907404D01*
X118789197Y-92918451D01*
X118801382Y-92960391D01*
X118811580Y-92977635D01*
X118820136Y-92995100D01*
X118827514Y-93013732D01*
X118827515Y-93013733D01*
X118853180Y-93049059D01*
X118859593Y-93058822D01*
X118881826Y-93096416D01*
X118881829Y-93096419D01*
X118881830Y-93096420D01*
X118895995Y-93110585D01*
X118908627Y-93125375D01*
X118920406Y-93141587D01*
X118954058Y-93169426D01*
X118962699Y-93177289D01*
X121890586Y-96105176D01*
X121922680Y-96160763D01*
X121922680Y-96224949D01*
X121904364Y-96293307D01*
X121884531Y-96520000D01*
X121904364Y-96746689D01*
X121963261Y-96966497D01*
X122059432Y-97172735D01*
X122189953Y-97359140D01*
X122350859Y-97520046D01*
X122537264Y-97650567D01*
X122537265Y-97650567D01*
X122537266Y-97650568D01*
X122743504Y-97746739D01*
X122963308Y-97805635D01*
X123190000Y-97825468D01*
X123416692Y-97805635D01*
X123636496Y-97746739D01*
X123842734Y-97650568D01*
X124029139Y-97520047D01*
X124190047Y-97359139D01*
X124320568Y-97172734D01*
X124416739Y-96966496D01*
X124475635Y-96746692D01*
X124495468Y-96520000D01*
X124475635Y-96293308D01*
X124416739Y-96073504D01*
X124320568Y-95867266D01*
X124309106Y-95850897D01*
X124190046Y-95680859D01*
X124029140Y-95519953D01*
X123842735Y-95389432D01*
X123636497Y-95293261D01*
X123416689Y-95234364D01*
X123190000Y-95214531D01*
X122963307Y-95234364D01*
X122894950Y-95252680D01*
X122830764Y-95252680D01*
X122775177Y-95220586D01*
X120041819Y-92487228D01*
X120014939Y-92447000D01*
X120005500Y-92399547D01*
X120005500Y-90887740D01*
X120007763Y-90867236D01*
X120007507Y-90859103D01*
X120005561Y-90797144D01*
X120005500Y-90793250D01*
X120005500Y-90765657D01*
X120005500Y-90765650D01*
X120004995Y-90761653D01*
X120004080Y-90750023D01*
X120002709Y-90706372D01*
X119997119Y-90687134D01*
X119993174Y-90668082D01*
X119990664Y-90648208D01*
X119974578Y-90607581D01*
X119970805Y-90596560D01*
X119958617Y-90554610D01*
X119948421Y-90537369D01*
X119939863Y-90519902D01*
X119932486Y-90501268D01*
X119906798Y-90465912D01*
X119900409Y-90456184D01*
X119878170Y-90418579D01*
X119864006Y-90404415D01*
X119851369Y-90389620D01*
X119839595Y-90373414D01*
X119833660Y-90368504D01*
X119805935Y-90345568D01*
X119797305Y-90337714D01*
X117974591Y-88515000D01*
X119664888Y-88515000D01*
X119664888Y-89112824D01*
X119671290Y-89172375D01*
X119721535Y-89307089D01*
X119807699Y-89422188D01*
X119922798Y-89508352D01*
X120057512Y-89558597D01*
X120117064Y-89565000D01*
X120714888Y-89565000D01*
X120714888Y-88515000D01*
X119664888Y-88515000D01*
X117974591Y-88515000D01*
X117926819Y-88467228D01*
X117899939Y-88427000D01*
X117890500Y-88379547D01*
X117890500Y-88015000D01*
X119664888Y-88015000D01*
X120714888Y-88015000D01*
X120714888Y-86965000D01*
X120117064Y-86965000D01*
X120057512Y-86971402D01*
X119922798Y-87021647D01*
X119807699Y-87107811D01*
X119721535Y-87222910D01*
X119671290Y-87357624D01*
X119664888Y-87417176D01*
X119664888Y-88015000D01*
X117890500Y-88015000D01*
X117890500Y-87996444D01*
X117875841Y-87866343D01*
X117818122Y-87701393D01*
X117725147Y-87553423D01*
X117601576Y-87429852D01*
X117453606Y-87336877D01*
X117288656Y-87279158D01*
X117158556Y-87264500D01*
X117158552Y-87264500D01*
X116744500Y-87264500D01*
X116682500Y-87247887D01*
X116637113Y-87202500D01*
X116620500Y-87140500D01*
X116620500Y-85926444D01*
X116605841Y-85796343D01*
X116548122Y-85631393D01*
X116455147Y-85483423D01*
X116331576Y-85359852D01*
X116183606Y-85266877D01*
X116018656Y-85209158D01*
X115888556Y-85194500D01*
X115888552Y-85194500D01*
X115251448Y-85194500D01*
X115251444Y-85194500D01*
X115121343Y-85209158D01*
X114956393Y-85266877D01*
X114808423Y-85359852D01*
X114684852Y-85483423D01*
X114591877Y-85631393D01*
X114534158Y-85796343D01*
X114519500Y-85926444D01*
X114519500Y-86245500D01*
X114502887Y-86307500D01*
X114457500Y-86352887D01*
X114395500Y-86369500D01*
X104450452Y-86369500D01*
X104402999Y-86360061D01*
X104362771Y-86333181D01*
X102264413Y-84234822D01*
X102232319Y-84179234D01*
X102232319Y-84115047D01*
X102250635Y-84046692D01*
X102270468Y-83820000D01*
X109819531Y-83820000D01*
X109839364Y-84046689D01*
X109898261Y-84266497D01*
X109994432Y-84472735D01*
X110124953Y-84659140D01*
X110285859Y-84820046D01*
X110472264Y-84950567D01*
X110472265Y-84950567D01*
X110472266Y-84950568D01*
X110678504Y-85046739D01*
X110898308Y-85105635D01*
X111049435Y-85118856D01*
X111124999Y-85125468D01*
X111124999Y-85125467D01*
X111125000Y-85125468D01*
X111351692Y-85105635D01*
X111571496Y-85046739D01*
X111777734Y-84950568D01*
X111964139Y-84820047D01*
X112125047Y-84659139D01*
X112237612Y-84498377D01*
X112281931Y-84459511D01*
X112339188Y-84445500D01*
X122108514Y-84445500D01*
X122129020Y-84447764D01*
X122131923Y-84447672D01*
X122131925Y-84447673D01*
X122199130Y-84445561D01*
X122203026Y-84445500D01*
X122215388Y-84445500D01*
X122277388Y-84462113D01*
X122322775Y-84507500D01*
X122339388Y-84569500D01*
X122339388Y-87025544D01*
X122324220Y-87084971D01*
X122282427Y-87129860D01*
X122224233Y-87149228D01*
X122163876Y-87138338D01*
X122137441Y-87117035D01*
X122136349Y-87118495D01*
X122006977Y-87021647D01*
X121872263Y-86971402D01*
X121812712Y-86965000D01*
X121214888Y-86965000D01*
X121214888Y-89565000D01*
X121812712Y-89565000D01*
X121872263Y-89558597D01*
X122006977Y-89508352D01*
X122122075Y-89422189D01*
X122128529Y-89413569D01*
X122177780Y-89374412D01*
X122239910Y-89364470D01*
X122298919Y-89386300D01*
X122312154Y-89395568D01*
X122518392Y-89491739D01*
X122738196Y-89550635D01*
X122964888Y-89570468D01*
X123191580Y-89550635D01*
X123411384Y-89491739D01*
X123617622Y-89395568D01*
X123804027Y-89265047D01*
X123964935Y-89104139D01*
X124095456Y-88917734D01*
X124191627Y-88711496D01*
X124250523Y-88491692D01*
X124270356Y-88265000D01*
X124250523Y-88038308D01*
X124191627Y-87818504D01*
X124095456Y-87612266D01*
X124092598Y-87608185D01*
X123964934Y-87425859D01*
X123804028Y-87264953D01*
X123643265Y-87152387D01*
X123604399Y-87108069D01*
X123590388Y-87050812D01*
X123590388Y-83129188D01*
X123604399Y-83071931D01*
X123643265Y-83027613D01*
X123804028Y-82915046D01*
X123964934Y-82754140D01*
X124095455Y-82567735D01*
X124095456Y-82567734D01*
X124191627Y-82361496D01*
X124250523Y-82141692D01*
X124270356Y-81915000D01*
X124250523Y-81688308D01*
X124191627Y-81468504D01*
X124095456Y-81262266D01*
X124077581Y-81236738D01*
X123964934Y-81075859D01*
X123804028Y-80914953D01*
X123617623Y-80784432D01*
X123411385Y-80688261D01*
X123191577Y-80629364D01*
X122964887Y-80609531D01*
X122738198Y-80629364D01*
X122518390Y-80688261D01*
X122312154Y-80784432D01*
X122299329Y-80793412D01*
X122240320Y-80815242D01*
X122178192Y-80805301D01*
X122128942Y-80766146D01*
X122122436Y-80757456D01*
X122122434Y-80757455D01*
X122122434Y-80757454D01*
X122007219Y-80671204D01*
X121872371Y-80620909D01*
X121812761Y-80614500D01*
X121812757Y-80614500D01*
X120564985Y-80614500D01*
X120517532Y-80605061D01*
X120477304Y-80578181D01*
X119518087Y-79618964D01*
X119507391Y-79606768D01*
X119488169Y-79581716D01*
X119362728Y-79485463D01*
X119216650Y-79424956D01*
X119099249Y-79409500D01*
X119094668Y-79408897D01*
X119059888Y-79404317D01*
X119032051Y-79407982D01*
X119028585Y-79408439D01*
X119012401Y-79409500D01*
X118071693Y-79409500D01*
X118014436Y-79395489D01*
X117970118Y-79356623D01*
X117840046Y-79170859D01*
X117679140Y-79009953D01*
X117492735Y-78879432D01*
X117286497Y-78783261D01*
X117066689Y-78724364D01*
X116839999Y-78704531D01*
X116613310Y-78724364D01*
X116393502Y-78783261D01*
X116187264Y-78879432D01*
X116000859Y-79009953D01*
X115839953Y-79170859D01*
X115709432Y-79357264D01*
X115613261Y-79563502D01*
X115554364Y-79783310D01*
X115534531Y-80010000D01*
X115554364Y-80236689D01*
X115613261Y-80456497D01*
X115709432Y-80662735D01*
X115839953Y-80849140D01*
X116000859Y-81010046D01*
X116187264Y-81140567D01*
X116187265Y-81140567D01*
X116187266Y-81140568D01*
X116393504Y-81236739D01*
X116613308Y-81295635D01*
X116764436Y-81308857D01*
X116839999Y-81315468D01*
X116839999Y-81315467D01*
X116840000Y-81315468D01*
X117066692Y-81295635D01*
X117286496Y-81236739D01*
X117492734Y-81140568D01*
X117679139Y-81010047D01*
X117840047Y-80849139D01*
X117952694Y-80688261D01*
X117970118Y-80663377D01*
X118014436Y-80624511D01*
X118071693Y-80610500D01*
X118759791Y-80610500D01*
X118807244Y-80619939D01*
X118847472Y-80646819D01*
X119628069Y-81427416D01*
X119654949Y-81467644D01*
X119664388Y-81515097D01*
X119664388Y-82762869D01*
X119670797Y-82822484D01*
X119705321Y-82915047D01*
X119721092Y-82957331D01*
X119750182Y-82996191D01*
X119774421Y-83059447D01*
X119761799Y-83126004D01*
X119716082Y-83175995D01*
X119650915Y-83194500D01*
X112339188Y-83194500D01*
X112281931Y-83180489D01*
X112237613Y-83141623D01*
X112125046Y-82980859D01*
X111964140Y-82819953D01*
X111777735Y-82689432D01*
X111571497Y-82593261D01*
X111351689Y-82534364D01*
X111124999Y-82514531D01*
X110898310Y-82534364D01*
X110678502Y-82593261D01*
X110472264Y-82689432D01*
X110285859Y-82819953D01*
X110124953Y-82980859D01*
X109994432Y-83167264D01*
X109898261Y-83373502D01*
X109839364Y-83593310D01*
X109819531Y-83820000D01*
X102270468Y-83820000D01*
X102250635Y-83593308D01*
X102191739Y-83373504D01*
X102095568Y-83167266D01*
X102089637Y-83158796D01*
X101965046Y-82980859D01*
X101804140Y-82819953D01*
X101617735Y-82689432D01*
X101411497Y-82593261D01*
X101191689Y-82534364D01*
X100964999Y-82514531D01*
X100738310Y-82534364D01*
X100518502Y-82593261D01*
X100312264Y-82689432D01*
X100125859Y-82819953D01*
X99964953Y-82980859D01*
X99852387Y-83141623D01*
X99808069Y-83180489D01*
X99750812Y-83194500D01*
X99004188Y-83194500D01*
X98946931Y-83180489D01*
X98902613Y-83141623D01*
X98790046Y-82980859D01*
X98629140Y-82819953D01*
X98442735Y-82689432D01*
X98236497Y-82593261D01*
X98016689Y-82534364D01*
X97789999Y-82514531D01*
X97563310Y-82534364D01*
X97343502Y-82593261D01*
X97137264Y-82689432D01*
X96950859Y-82819953D01*
X96789953Y-82980859D01*
X96659432Y-83167264D01*
X96563261Y-83373502D01*
X96504364Y-83593310D01*
X96484531Y-83820000D01*
X94480500Y-83820000D01*
X94480500Y-81089026D01*
X105954526Y-81089026D01*
X106027515Y-81140133D01*
X106233673Y-81236266D01*
X106453397Y-81295141D01*
X106680000Y-81314966D01*
X106906602Y-81295141D01*
X107126326Y-81236266D01*
X107332480Y-81140134D01*
X107405472Y-81089025D01*
X106680001Y-80363553D01*
X106680000Y-80363553D01*
X105954526Y-81089025D01*
X105954526Y-81089026D01*
X94480500Y-81089026D01*
X94480500Y-80009999D01*
X105375033Y-80009999D01*
X105394858Y-80236602D01*
X105453733Y-80456326D01*
X105549866Y-80662484D01*
X105600972Y-80735471D01*
X105600974Y-80735472D01*
X106326446Y-80010001D01*
X107033553Y-80010001D01*
X107759025Y-80735472D01*
X107810134Y-80662480D01*
X107906266Y-80456326D01*
X107965141Y-80236602D01*
X107984966Y-80009999D01*
X107965141Y-79783397D01*
X107906266Y-79563673D01*
X107810133Y-79357515D01*
X107759025Y-79284526D01*
X107033553Y-80010000D01*
X107033553Y-80010001D01*
X106326446Y-80010001D01*
X106326446Y-80010000D01*
X105600973Y-79284526D01*
X105600973Y-79284527D01*
X105549865Y-79357516D01*
X105453733Y-79563672D01*
X105394858Y-79783397D01*
X105375033Y-80009999D01*
X94480500Y-80009999D01*
X94480500Y-78930973D01*
X105954526Y-78930973D01*
X106680000Y-79656446D01*
X106680001Y-79656446D01*
X107405472Y-78930974D01*
X107405471Y-78930972D01*
X107332484Y-78879866D01*
X107126326Y-78783733D01*
X106906602Y-78724858D01*
X106680000Y-78705033D01*
X106453397Y-78724858D01*
X106233672Y-78783733D01*
X106027516Y-78879865D01*
X105954527Y-78930973D01*
X105954526Y-78930973D01*
X94480500Y-78930973D01*
X94480500Y-76824500D01*
X94497113Y-76762500D01*
X94542500Y-76717113D01*
X94604500Y-76700500D01*
X126375500Y-76700500D01*
X126437500Y-76717113D01*
G37*
%TD.AperFunction*%
%TD*%
M02*
