%TF.GenerationSoftware,KiCad,Pcbnew,7.0.1-0*%
%TF.CreationDate,2023-04-05T17:24:46+02:00*%
%TF.ProjectId,_autosave-wind_down_timer,5f617574-6f73-4617-9665-2d77696e645f,rev?*%
%TF.SameCoordinates,Original*%
%TF.FileFunction,Copper,L2,Bot*%
%TF.FilePolarity,Positive*%
%FSLAX46Y46*%
G04 Gerber Fmt 4.6, Leading zero omitted, Abs format (unit mm)*
G04 Created by KiCad (PCBNEW 7.0.1-0) date 2023-04-05 17:24:46*
%MOMM*%
%LPD*%
G01*
G04 APERTURE LIST*
G04 Aperture macros list*
%AMRoundRect*
0 Rectangle with rounded corners*
0 $1 Rounding radius*
0 $2 $3 $4 $5 $6 $7 $8 $9 X,Y pos of 4 corners*
0 Add a 4 corners polygon primitive as box body*
4,1,4,$2,$3,$4,$5,$6,$7,$8,$9,$2,$3,0*
0 Add four circle primitives for the rounded corners*
1,1,$1+$1,$2,$3*
1,1,$1+$1,$4,$5*
1,1,$1+$1,$6,$7*
1,1,$1+$1,$8,$9*
0 Add four rect primitives between the rounded corners*
20,1,$1+$1,$2,$3,$4,$5,0*
20,1,$1+$1,$4,$5,$6,$7,0*
20,1,$1+$1,$6,$7,$8,$9,0*
20,1,$1+$1,$8,$9,$2,$3,0*%
G04 Aperture macros list end*
%TA.AperFunction,ComponentPad*%
%ADD10C,1.600000*%
%TD*%
%TA.AperFunction,ComponentPad*%
%ADD11O,1.600000X1.600000*%
%TD*%
%TA.AperFunction,ComponentPad*%
%ADD12R,1.600000X1.600000*%
%TD*%
%TA.AperFunction,ComponentPad*%
%ADD13R,1.100000X1.800000*%
%TD*%
%TA.AperFunction,ComponentPad*%
%ADD14RoundRect,0.275000X-0.275000X-0.625000X0.275000X-0.625000X0.275000X0.625000X-0.275000X0.625000X0*%
%TD*%
%TA.AperFunction,ComponentPad*%
%ADD15C,2.000000*%
%TD*%
%TA.AperFunction,ComponentPad*%
%ADD16R,1.700000X1.700000*%
%TD*%
%TA.AperFunction,ComponentPad*%
%ADD17O,1.700000X1.700000*%
%TD*%
%TA.AperFunction,ViaPad*%
%ADD18C,0.600000*%
%TD*%
%TA.AperFunction,Conductor*%
%ADD19C,0.250000*%
%TD*%
%TA.AperFunction,Conductor*%
%ADD20C,0.200000*%
%TD*%
G04 APERTURE END LIST*
D10*
%TO.P,R5,1*%
%TO.N,VCC*%
X106680000Y-80010000D03*
D11*
%TO.P,R5,2*%
%TO.N,Net-(C4-Pad1)*%
X116840000Y-80010000D03*
%TD*%
D10*
%TO.P,R2,1*%
%TO.N,Net-(U1-DIS)*%
X119380000Y-106680000D03*
D11*
%TO.P,R2,2*%
%TO.N,Net-(U1-THR)*%
X119380000Y-96520000D03*
%TD*%
D12*
%TO.P,C4,1*%
%TO.N,Net-(C4-Pad1)*%
X120964888Y-81915000D03*
D10*
%TO.P,C4,2*%
%TO.N,Net-(C3-Pad2)*%
X122964888Y-81915000D03*
%TD*%
%TO.P,R3,1*%
%TO.N,VCC*%
X97790000Y-93980000D03*
D11*
%TO.P,R3,2*%
%TO.N,Net-(Q1-B)*%
X97790000Y-83820000D03*
%TD*%
D10*
%TO.P,C1,1*%
%TO.N,Net-(U1-CV)*%
X115570000Y-106005000D03*
%TO.P,C1,2*%
%TO.N,GND*%
X115570000Y-103505000D03*
%TD*%
D12*
%TO.P,C3,1*%
%TO.N,VCC*%
X120964888Y-88265000D03*
D10*
%TO.P,C3,2*%
%TO.N,Net-(C3-Pad2)*%
X122964888Y-88265000D03*
%TD*%
%TO.P,R4,1*%
%TO.N,Net-(Q1-B)*%
X100965000Y-83820000D03*
D11*
%TO.P,R4,2*%
%TO.N,Net-(C3-Pad2)*%
X111125000Y-83820000D03*
%TD*%
D10*
%TO.P,R1,1*%
%TO.N,Net-(Q1-C)*%
X123190000Y-96520000D03*
D11*
%TO.P,R1,2*%
%TO.N,Net-(U1-DIS)*%
X123190000Y-106680000D03*
%TD*%
D13*
%TO.P,Q1,1,E*%
%TO.N,VCC*%
X114300000Y-88665000D03*
D14*
%TO.P,Q1,2,B*%
%TO.N,Net-(Q1-B)*%
X115570000Y-86595000D03*
%TO.P,Q1,3,C*%
%TO.N,Net-(Q1-C)*%
X116840000Y-88665000D03*
%TD*%
D15*
%TO.P,SW1,1,1*%
%TO.N,Net-(C3-Pad2)*%
X105260000Y-100965000D03*
X111760000Y-100965000D03*
%TO.P,SW1,2,2*%
%TO.N,GND*%
X105260000Y-105465000D03*
X111760000Y-105465000D03*
%TD*%
D16*
%TO.P,J1,1,Pin_1*%
%TO.N,/Out*%
X98425000Y-105410000D03*
D17*
%TO.P,J1,2,Pin_2*%
%TO.N,GND*%
X98425000Y-102870000D03*
%TO.P,J1,3,Pin_3*%
%TO.N,VCC*%
X98425000Y-100330000D03*
%TD*%
D10*
%TO.P,C2,1*%
%TO.N,Net-(U1-THR)*%
X115570000Y-99655000D03*
%TO.P,C2,2*%
%TO.N,GND*%
X115570000Y-97155000D03*
%TD*%
D12*
%TO.P,U1,1,GND*%
%TO.N,GND*%
X100975000Y-88275000D03*
D11*
%TO.P,U1,2,TR*%
%TO.N,Net-(U1-THR)*%
X100975000Y-90815000D03*
%TO.P,U1,3,Q*%
%TO.N,/Out*%
X100975000Y-93355000D03*
%TO.P,U1,4,R*%
%TO.N,VCC*%
X100975000Y-95895000D03*
%TO.P,U1,5,CV*%
%TO.N,Net-(U1-CV)*%
X108595000Y-95895000D03*
%TO.P,U1,6,THR*%
%TO.N,Net-(U1-THR)*%
X108595000Y-93355000D03*
%TO.P,U1,7,DIS*%
%TO.N,Net-(U1-DIS)*%
X108595000Y-90815000D03*
%TO.P,U1,8,VCC*%
%TO.N,VCC*%
X108595000Y-88275000D03*
%TD*%
D18*
%TO.N,/Out*%
X101600000Y-101600000D03*
%TD*%
D19*
%TO.N,Net-(C3-Pad2)*%
X111125000Y-83820000D02*
X107470000Y-87475000D01*
X107470000Y-87475000D02*
X107470000Y-96675000D01*
X107470000Y-96675000D02*
X111760000Y-100965000D01*
D20*
%TO.N,/Out*%
X101600000Y-99060000D02*
X101600000Y-101600000D01*
X99060000Y-96520000D02*
X101600000Y-99060000D01*
X100975000Y-93355000D02*
X99060000Y-95270000D01*
X99060000Y-95270000D02*
X99060000Y-96520000D01*
D19*
%TO.N,Net-(U1-DIS)*%
X114445000Y-100475000D02*
X119380000Y-105410000D01*
X114445000Y-96665000D02*
X114445000Y-100475000D01*
X119380000Y-105410000D02*
X119380000Y-106680000D01*
X108595000Y-90815000D02*
X114445000Y-96665000D01*
%TD*%
%TA.AperFunction,Conductor*%
%TO.N,GND*%
G36*
X126437500Y-76717113D02*
G01*
X126482887Y-76762500D01*
X126499500Y-76824500D01*
X126499500Y-108595500D01*
X126482887Y-108657500D01*
X126437500Y-108702887D01*
X126375500Y-108719500D01*
X94604500Y-108719500D01*
X94542500Y-108702887D01*
X94497113Y-108657500D01*
X94480500Y-108595500D01*
X94480500Y-106307869D01*
X97074500Y-106307869D01*
X97077404Y-106334882D01*
X97080909Y-106367483D01*
X97131204Y-106502331D01*
X97217454Y-106617546D01*
X97332669Y-106703796D01*
X97467517Y-106754091D01*
X97527127Y-106760500D01*
X99322872Y-106760499D01*
X99382483Y-106754091D01*
X99517331Y-106703796D01*
X99537617Y-106688610D01*
X104389942Y-106688610D01*
X104436766Y-106725055D01*
X104655393Y-106843368D01*
X104890506Y-106924083D01*
X105135707Y-106965000D01*
X105384293Y-106965000D01*
X105629493Y-106924083D01*
X105864606Y-106843368D01*
X106083233Y-106725053D01*
X106130055Y-106688610D01*
X110889942Y-106688610D01*
X110936766Y-106725055D01*
X111155393Y-106843368D01*
X111390506Y-106924083D01*
X111635707Y-106965000D01*
X111884293Y-106965000D01*
X112129493Y-106924083D01*
X112364606Y-106843368D01*
X112583233Y-106725053D01*
X112630056Y-106688609D01*
X111760000Y-105818553D01*
X110889942Y-106688609D01*
X110889942Y-106688610D01*
X106130055Y-106688610D01*
X106130056Y-106688609D01*
X105260000Y-105818553D01*
X104389942Y-106688609D01*
X104389942Y-106688610D01*
X99537617Y-106688610D01*
X99632546Y-106617546D01*
X99718796Y-106502331D01*
X99769091Y-106367483D01*
X99775500Y-106307873D01*
X99775500Y-105465000D01*
X103754858Y-105465000D01*
X103775386Y-105712732D01*
X103836413Y-105953721D01*
X103936268Y-106181370D01*
X104036563Y-106334882D01*
X104036564Y-106334882D01*
X104906447Y-105465001D01*
X105613553Y-105465001D01*
X106483434Y-106334882D01*
X106583730Y-106181369D01*
X106683586Y-105953721D01*
X106744613Y-105712732D01*
X106765141Y-105465000D01*
X110254858Y-105465000D01*
X110275386Y-105712732D01*
X110336413Y-105953721D01*
X110436268Y-106181370D01*
X110536563Y-106334882D01*
X110536564Y-106334882D01*
X111406447Y-105465001D01*
X112113553Y-105465001D01*
X112983434Y-106334882D01*
X113083730Y-106181369D01*
X113161093Y-106005000D01*
X114264531Y-106005000D01*
X114284364Y-106231689D01*
X114343261Y-106451497D01*
X114439432Y-106657735D01*
X114569953Y-106844140D01*
X114730859Y-107005046D01*
X114917264Y-107135567D01*
X114917265Y-107135567D01*
X114917266Y-107135568D01*
X115123504Y-107231739D01*
X115343308Y-107290635D01*
X115570000Y-107310468D01*
X115796692Y-107290635D01*
X116016496Y-107231739D01*
X116222734Y-107135568D01*
X116409139Y-107005047D01*
X116570047Y-106844139D01*
X116700568Y-106657734D01*
X116796739Y-106451496D01*
X116855635Y-106231692D01*
X116875468Y-106005000D01*
X116855635Y-105778308D01*
X116796739Y-105558504D01*
X116700568Y-105352266D01*
X116645123Y-105273082D01*
X116570046Y-105165859D01*
X116409140Y-105004953D01*
X116222735Y-104874432D01*
X116207023Y-104867106D01*
X116154847Y-104821348D01*
X116135428Y-104754722D01*
X116154849Y-104688097D01*
X116207026Y-104642340D01*
X116222484Y-104635131D01*
X116295472Y-104584025D01*
X115570001Y-103858553D01*
X115570000Y-103858553D01*
X114844526Y-104584025D01*
X114844526Y-104584026D01*
X114917515Y-104635133D01*
X114932975Y-104642342D01*
X114985150Y-104688098D01*
X115004570Y-104754722D01*
X114985152Y-104821347D01*
X114932978Y-104867104D01*
X114917268Y-104874429D01*
X114730859Y-105004953D01*
X114569953Y-105165859D01*
X114439432Y-105352264D01*
X114343261Y-105558502D01*
X114284364Y-105778310D01*
X114264531Y-106005000D01*
X113161093Y-106005000D01*
X113183586Y-105953721D01*
X113244613Y-105712732D01*
X113265141Y-105465000D01*
X113244613Y-105217267D01*
X113183586Y-104976278D01*
X113083730Y-104748630D01*
X112983434Y-104595116D01*
X112113553Y-105465000D01*
X112113553Y-105465001D01*
X111406447Y-105465001D01*
X111406447Y-105465000D01*
X110536564Y-104595116D01*
X110436266Y-104748634D01*
X110336413Y-104976278D01*
X110275386Y-105217267D01*
X110254858Y-105465000D01*
X106765141Y-105465000D01*
X106744613Y-105217267D01*
X106683586Y-104976278D01*
X106583730Y-104748630D01*
X106483434Y-104595116D01*
X105613553Y-105465000D01*
X105613553Y-105465001D01*
X104906447Y-105465001D01*
X104906447Y-105465000D01*
X104036564Y-104595116D01*
X103936266Y-104748634D01*
X103836413Y-104976278D01*
X103775386Y-105217267D01*
X103754858Y-105465000D01*
X99775500Y-105465000D01*
X99775499Y-104512128D01*
X99769091Y-104452517D01*
X99718796Y-104317669D01*
X99661694Y-104241390D01*
X104389942Y-104241390D01*
X105260000Y-105111447D01*
X105260001Y-105111447D01*
X106130057Y-104241390D01*
X110889942Y-104241390D01*
X111760000Y-105111447D01*
X111760001Y-105111447D01*
X112630057Y-104241390D01*
X112630056Y-104241388D01*
X112583235Y-104204947D01*
X112364606Y-104086631D01*
X112129493Y-104005916D01*
X111884293Y-103965000D01*
X111635707Y-103965000D01*
X111390506Y-104005916D01*
X111155393Y-104086631D01*
X110936764Y-104204946D01*
X110889942Y-104241388D01*
X110889942Y-104241390D01*
X106130057Y-104241390D01*
X106130056Y-104241388D01*
X106083235Y-104204947D01*
X105864606Y-104086631D01*
X105629493Y-104005916D01*
X105384293Y-103965000D01*
X105135707Y-103965000D01*
X104890506Y-104005916D01*
X104655393Y-104086631D01*
X104436764Y-104204946D01*
X104389942Y-104241388D01*
X104389942Y-104241390D01*
X99661694Y-104241390D01*
X99632546Y-104202454D01*
X99517331Y-104116204D01*
X99385399Y-104066996D01*
X99335021Y-104032018D01*
X99307568Y-103977173D01*
X99309757Y-103915880D01*
X99341053Y-103863133D01*
X99463109Y-103741077D01*
X99598600Y-103547576D01*
X99618454Y-103504999D01*
X114265033Y-103504999D01*
X114284858Y-103731602D01*
X114343733Y-103951326D01*
X114439866Y-104157484D01*
X114490972Y-104230471D01*
X114490974Y-104230472D01*
X115216446Y-103505001D01*
X115216446Y-103505000D01*
X114490973Y-102779526D01*
X114490973Y-102779527D01*
X114439865Y-102852516D01*
X114343733Y-103058672D01*
X114284858Y-103278397D01*
X114265033Y-103504999D01*
X99618454Y-103504999D01*
X99698430Y-103333492D01*
X99755636Y-103120000D01*
X97094364Y-103120000D01*
X97151569Y-103333492D01*
X97251399Y-103547576D01*
X97386893Y-103741081D01*
X97508946Y-103863134D01*
X97540242Y-103915880D01*
X97542431Y-103977173D01*
X97514978Y-104032018D01*
X97464599Y-104066997D01*
X97332669Y-104116204D01*
X97217454Y-104202454D01*
X97131204Y-104317668D01*
X97080909Y-104452516D01*
X97074500Y-104512130D01*
X97074500Y-106307869D01*
X94480500Y-106307869D01*
X94480500Y-100329999D01*
X97069340Y-100329999D01*
X97089936Y-100565407D01*
X97132804Y-100725391D01*
X97151097Y-100793663D01*
X97250965Y-101007830D01*
X97386505Y-101201401D01*
X97553599Y-101368495D01*
X97739597Y-101498732D01*
X97778460Y-101543048D01*
X97792471Y-101600305D01*
X97778461Y-101657561D01*
X97739595Y-101701880D01*
X97553919Y-101831892D01*
X97386890Y-101998921D01*
X97251400Y-102192421D01*
X97151569Y-102406507D01*
X97094364Y-102619999D01*
X97094364Y-102620000D01*
X99755636Y-102620000D01*
X99755635Y-102619999D01*
X99698430Y-102406507D01*
X99598599Y-102192421D01*
X99463109Y-101998921D01*
X99296081Y-101831893D01*
X99110404Y-101701880D01*
X99071539Y-101657562D01*
X99057528Y-101600305D01*
X99071539Y-101543048D01*
X99110402Y-101498732D01*
X99296401Y-101368495D01*
X99463495Y-101201401D01*
X99599035Y-101007830D01*
X99698903Y-100793663D01*
X99760063Y-100565408D01*
X99780659Y-100330000D01*
X99760063Y-100094592D01*
X99698903Y-99866337D01*
X99599035Y-99652171D01*
X99463495Y-99458599D01*
X99296401Y-99291505D01*
X99102830Y-99155965D01*
X98888663Y-99056097D01*
X98827502Y-99039709D01*
X98660407Y-98994936D01*
X98425000Y-98974340D01*
X98189592Y-98994936D01*
X97961336Y-99056097D01*
X97747170Y-99155965D01*
X97553598Y-99291505D01*
X97386505Y-99458598D01*
X97250965Y-99652170D01*
X97151097Y-99866336D01*
X97089936Y-100094592D01*
X97069340Y-100329999D01*
X94480500Y-100329999D01*
X94480500Y-93980000D01*
X96484531Y-93980000D01*
X96504364Y-94206689D01*
X96563261Y-94426497D01*
X96659432Y-94632735D01*
X96789953Y-94819140D01*
X96950859Y-94980046D01*
X97137264Y-95110567D01*
X97137265Y-95110567D01*
X97137266Y-95110568D01*
X97343504Y-95206739D01*
X97563308Y-95265635D01*
X97790000Y-95285468D01*
X98016692Y-95265635D01*
X98236496Y-95206739D01*
X98280603Y-95186171D01*
X98337062Y-95174619D01*
X98392648Y-95189838D01*
X98435350Y-95228540D01*
X98455946Y-95282366D01*
X98457380Y-95293261D01*
X98458439Y-95301300D01*
X98459500Y-95317487D01*
X98459500Y-96472513D01*
X98458439Y-96488699D01*
X98454317Y-96520000D01*
X98459500Y-96559360D01*
X98459500Y-96559361D01*
X98474956Y-96676762D01*
X98535463Y-96822840D01*
X98631716Y-96948281D01*
X98647121Y-96960101D01*
X98655455Y-96966496D01*
X98656768Y-96967503D01*
X98668964Y-96978199D01*
X100963181Y-99272417D01*
X100990061Y-99312645D01*
X100999500Y-99360098D01*
X100999500Y-101017059D01*
X100990061Y-101064512D01*
X100976312Y-101085088D01*
X100977617Y-101085908D01*
X100897872Y-101212821D01*
X100874211Y-101250478D01*
X100832915Y-101368495D01*
X100814631Y-101420748D01*
X100794434Y-101600000D01*
X100814631Y-101779251D01*
X100814631Y-101779253D01*
X100814632Y-101779255D01*
X100874211Y-101949522D01*
X100930979Y-102039867D01*
X100970185Y-102102264D01*
X101097735Y-102229814D01*
X101097737Y-102229815D01*
X101097738Y-102229816D01*
X101250478Y-102325789D01*
X101420745Y-102385368D01*
X101600000Y-102405565D01*
X101779255Y-102385368D01*
X101949522Y-102325789D01*
X102102262Y-102229816D01*
X102229816Y-102102262D01*
X102325789Y-101949522D01*
X102385368Y-101779255D01*
X102405565Y-101600000D01*
X102385368Y-101420745D01*
X102325789Y-101250478D01*
X102229816Y-101097738D01*
X102222383Y-101085908D01*
X102223687Y-101085088D01*
X102209939Y-101064512D01*
X102200500Y-101017059D01*
X102200500Y-100965000D01*
X103754356Y-100965000D01*
X103774891Y-101212816D01*
X103774891Y-101212819D01*
X103774892Y-101212821D01*
X103835937Y-101453881D01*
X103855610Y-101498730D01*
X103935825Y-101681604D01*
X103935827Y-101681607D01*
X104071836Y-101889785D01*
X104240256Y-102072738D01*
X104278191Y-102102264D01*
X104436485Y-102225470D01*
X104436487Y-102225471D01*
X104436491Y-102225474D01*
X104655190Y-102343828D01*
X104890386Y-102424571D01*
X105135665Y-102465500D01*
X105384335Y-102465500D01*
X105629614Y-102424571D01*
X105864810Y-102343828D01*
X106083509Y-102225474D01*
X106279744Y-102072738D01*
X106448164Y-101889785D01*
X106584173Y-101681607D01*
X106684063Y-101453881D01*
X106745108Y-101212821D01*
X106765643Y-100965000D01*
X106745108Y-100717179D01*
X106684063Y-100476119D01*
X106584173Y-100248393D01*
X106448164Y-100040215D01*
X106279744Y-99857262D01*
X106257612Y-99840036D01*
X106083514Y-99704529D01*
X106083510Y-99704526D01*
X106083509Y-99704526D01*
X105864810Y-99586172D01*
X105864806Y-99586170D01*
X105864805Y-99586170D01*
X105629615Y-99505429D01*
X105384335Y-99464500D01*
X105135665Y-99464500D01*
X104890384Y-99505429D01*
X104655194Y-99586170D01*
X104436485Y-99704529D01*
X104240259Y-99857259D01*
X104240256Y-99857261D01*
X104240256Y-99857262D01*
X104217767Y-99881692D01*
X104071837Y-100040214D01*
X103935825Y-100248395D01*
X103866718Y-100405946D01*
X103835937Y-100476119D01*
X103796515Y-100631792D01*
X103774891Y-100717183D01*
X103754356Y-100965000D01*
X102200500Y-100965000D01*
X102200500Y-99107487D01*
X102201561Y-99091301D01*
X102205682Y-99059999D01*
X102197116Y-98994936D01*
X102185044Y-98903238D01*
X102124536Y-98757159D01*
X102052450Y-98663214D01*
X102052448Y-98663212D01*
X102028282Y-98631718D01*
X102003233Y-98612497D01*
X101991038Y-98601802D01*
X101623261Y-98234025D01*
X100793663Y-97404428D01*
X100762763Y-97353002D01*
X100759623Y-97293088D01*
X100784979Y-97238712D01*
X100832895Y-97202605D01*
X100892153Y-97193220D01*
X100975000Y-97200468D01*
X101201692Y-97180635D01*
X101421496Y-97121739D01*
X101627734Y-97025568D01*
X101814139Y-96895047D01*
X101975047Y-96734139D01*
X102105568Y-96547734D01*
X102201739Y-96341496D01*
X102260635Y-96121692D01*
X102280468Y-95895000D01*
X102260635Y-95668308D01*
X102201739Y-95448504D01*
X102105568Y-95242266D01*
X102080691Y-95206738D01*
X101975046Y-95055859D01*
X101814140Y-94894953D01*
X101627733Y-94764431D01*
X101569725Y-94737382D01*
X101517549Y-94691625D01*
X101498129Y-94625000D01*
X101517549Y-94558375D01*
X101569725Y-94512618D01*
X101627734Y-94485568D01*
X101814139Y-94355047D01*
X101975047Y-94194139D01*
X102105568Y-94007734D01*
X102201739Y-93801496D01*
X102260635Y-93581692D01*
X102280468Y-93355000D01*
X102260635Y-93128308D01*
X102201739Y-92908504D01*
X102105568Y-92702266D01*
X101975047Y-92515861D01*
X101975046Y-92515859D01*
X101814140Y-92354953D01*
X101627733Y-92224431D01*
X101569725Y-92197382D01*
X101517549Y-92151625D01*
X101498129Y-92085000D01*
X101517549Y-92018375D01*
X101569725Y-91972618D01*
X101627734Y-91945568D01*
X101814139Y-91815047D01*
X101975047Y-91654139D01*
X102105568Y-91467734D01*
X102201739Y-91261496D01*
X102260635Y-91041692D01*
X102280468Y-90815000D01*
X102260635Y-90588308D01*
X102201739Y-90368504D01*
X102105568Y-90162266D01*
X102037812Y-90065500D01*
X101975046Y-89975859D01*
X101814140Y-89814953D01*
X101788913Y-89797289D01*
X101749775Y-89752447D01*
X101736042Y-89694533D01*
X101750876Y-89636892D01*
X101790860Y-89592803D01*
X101846783Y-89572424D01*
X101882375Y-89568597D01*
X102017089Y-89518352D01*
X102132188Y-89432188D01*
X102218352Y-89317089D01*
X102268597Y-89182375D01*
X102275000Y-89122824D01*
X102275000Y-88525000D01*
X99675000Y-88525000D01*
X99675000Y-89122824D01*
X99681402Y-89182375D01*
X99731647Y-89317089D01*
X99817811Y-89432188D01*
X99932910Y-89518352D01*
X100067624Y-89568597D01*
X100103217Y-89572424D01*
X100159139Y-89592803D01*
X100199123Y-89636891D01*
X100213957Y-89694532D01*
X100200224Y-89752445D01*
X100161088Y-89797288D01*
X100135859Y-89814953D01*
X99974953Y-89975859D01*
X99844432Y-90162264D01*
X99748261Y-90368502D01*
X99689364Y-90588310D01*
X99669531Y-90815000D01*
X99689364Y-91041689D01*
X99748261Y-91261497D01*
X99844432Y-91467735D01*
X99974953Y-91654140D01*
X100135859Y-91815046D01*
X100322263Y-91945566D01*
X100322266Y-91945568D01*
X100380275Y-91972618D01*
X100432450Y-92018375D01*
X100451869Y-92085000D01*
X100432450Y-92151625D01*
X100380275Y-92197382D01*
X100322263Y-92224433D01*
X100135859Y-92354953D01*
X99974953Y-92515859D01*
X99844432Y-92702264D01*
X99748261Y-92908502D01*
X99689364Y-93128310D01*
X99669531Y-93354999D01*
X99689364Y-93581688D01*
X99715152Y-93677930D01*
X99715152Y-93742118D01*
X99683058Y-93797705D01*
X99297511Y-94183252D01*
X99246084Y-94214153D01*
X99186169Y-94217293D01*
X99131794Y-94191937D01*
X99095687Y-94144021D01*
X99086302Y-94084763D01*
X99093042Y-94007734D01*
X99095468Y-93980000D01*
X99075635Y-93753308D01*
X99016739Y-93533504D01*
X98920568Y-93327266D01*
X98909106Y-93310897D01*
X98790046Y-93140859D01*
X98629140Y-92979953D01*
X98442735Y-92849432D01*
X98236497Y-92753261D01*
X98016689Y-92694364D01*
X97789999Y-92674531D01*
X97563310Y-92694364D01*
X97343502Y-92753261D01*
X97137264Y-92849432D01*
X96950859Y-92979953D01*
X96789953Y-93140859D01*
X96659432Y-93327264D01*
X96563261Y-93533502D01*
X96504364Y-93753310D01*
X96484531Y-93980000D01*
X94480500Y-93980000D01*
X94480500Y-88025000D01*
X99675000Y-88025000D01*
X100725000Y-88025000D01*
X100725000Y-86975000D01*
X101225000Y-86975000D01*
X101225000Y-88025000D01*
X102275000Y-88025000D01*
X102275000Y-87455194D01*
X106839840Y-87455194D01*
X106843950Y-87498675D01*
X106844500Y-87510344D01*
X106844500Y-96592256D01*
X106842235Y-96612762D01*
X106844439Y-96682873D01*
X106844500Y-96686768D01*
X106844500Y-96714349D01*
X106845003Y-96718334D01*
X106845918Y-96729967D01*
X106847290Y-96773626D01*
X106852879Y-96792860D01*
X106856825Y-96811916D01*
X106859335Y-96831792D01*
X106875414Y-96872404D01*
X106879197Y-96883451D01*
X106891382Y-96925391D01*
X106901580Y-96942635D01*
X106910136Y-96960100D01*
X106917514Y-96978732D01*
X106917515Y-96978733D01*
X106943180Y-97014059D01*
X106949593Y-97023822D01*
X106971826Y-97061416D01*
X106971829Y-97061419D01*
X106971830Y-97061420D01*
X106985995Y-97075585D01*
X106998627Y-97090375D01*
X107010406Y-97106587D01*
X107044058Y-97134426D01*
X107052699Y-97142289D01*
X110296339Y-100385930D01*
X110328209Y-100440693D01*
X110328863Y-100504049D01*
X110296515Y-100631792D01*
X110274891Y-100717183D01*
X110254356Y-100965000D01*
X110274891Y-101212816D01*
X110274891Y-101212819D01*
X110274892Y-101212821D01*
X110335937Y-101453881D01*
X110355610Y-101498730D01*
X110435825Y-101681604D01*
X110435827Y-101681607D01*
X110571836Y-101889785D01*
X110740256Y-102072738D01*
X110778191Y-102102264D01*
X110936485Y-102225470D01*
X110936487Y-102225471D01*
X110936491Y-102225474D01*
X111155190Y-102343828D01*
X111390386Y-102424571D01*
X111635665Y-102465500D01*
X111884335Y-102465500D01*
X112129614Y-102424571D01*
X112364810Y-102343828D01*
X112583509Y-102225474D01*
X112779744Y-102072738D01*
X112948164Y-101889785D01*
X113084173Y-101681607D01*
X113184063Y-101453881D01*
X113245108Y-101212821D01*
X113265643Y-100965000D01*
X113245108Y-100717179D01*
X113184063Y-100476119D01*
X113084173Y-100248393D01*
X112948164Y-100040215D01*
X112779744Y-99857262D01*
X112757612Y-99840036D01*
X112583514Y-99704529D01*
X112583510Y-99704526D01*
X112583509Y-99704526D01*
X112364810Y-99586172D01*
X112364806Y-99586170D01*
X112364805Y-99586170D01*
X112129615Y-99505429D01*
X111884335Y-99464500D01*
X111635665Y-99464500D01*
X111390387Y-99505428D01*
X111310713Y-99532780D01*
X111242501Y-99536307D01*
X111182770Y-99503179D01*
X109002927Y-97323336D01*
X108972347Y-97272942D01*
X108968492Y-97214122D01*
X108992232Y-97160168D01*
X109038204Y-97123273D01*
X109041490Y-97121740D01*
X109041496Y-97121739D01*
X109247734Y-97025568D01*
X109434139Y-96895047D01*
X109595047Y-96734139D01*
X109725568Y-96547734D01*
X109821739Y-96341496D01*
X109880635Y-96121692D01*
X109900468Y-95895000D01*
X109880635Y-95668308D01*
X109821739Y-95448504D01*
X109725568Y-95242266D01*
X109700691Y-95206738D01*
X109595046Y-95055859D01*
X109434140Y-94894953D01*
X109247733Y-94764431D01*
X109189725Y-94737382D01*
X109137549Y-94691625D01*
X109118129Y-94625000D01*
X109137549Y-94558375D01*
X109189725Y-94512618D01*
X109247734Y-94485568D01*
X109434139Y-94355047D01*
X109595047Y-94194139D01*
X109725568Y-94007734D01*
X109821739Y-93801496D01*
X109880635Y-93581692D01*
X109900468Y-93355000D01*
X109898042Y-93327266D01*
X109896610Y-93310897D01*
X109905995Y-93251639D01*
X109942102Y-93203724D01*
X109996478Y-93178368D01*
X110056392Y-93181508D01*
X110107818Y-93212408D01*
X111951268Y-95055859D01*
X113783181Y-96887772D01*
X113810061Y-96928000D01*
X113819500Y-96975453D01*
X113819500Y-100392256D01*
X113817235Y-100412762D01*
X113819439Y-100482873D01*
X113819500Y-100486768D01*
X113819500Y-100514349D01*
X113820003Y-100518334D01*
X113820918Y-100529967D01*
X113822290Y-100573626D01*
X113827879Y-100592860D01*
X113831825Y-100611916D01*
X113834335Y-100631792D01*
X113850414Y-100672404D01*
X113854197Y-100683451D01*
X113866382Y-100725391D01*
X113876580Y-100742635D01*
X113885136Y-100760100D01*
X113892514Y-100778732D01*
X113892515Y-100778733D01*
X113918180Y-100814059D01*
X113924593Y-100823822D01*
X113946826Y-100861416D01*
X113946829Y-100861419D01*
X113946830Y-100861420D01*
X113960995Y-100875585D01*
X113973627Y-100890375D01*
X113985406Y-100906587D01*
X114019058Y-100934426D01*
X114027699Y-100942289D01*
X115162448Y-102077039D01*
X115193028Y-102127433D01*
X115196883Y-102186252D01*
X115173143Y-102240206D01*
X115127172Y-102277102D01*
X114917516Y-102374865D01*
X114844526Y-102425973D01*
X116649025Y-104230472D01*
X116700136Y-104157478D01*
X116797897Y-103947828D01*
X116834792Y-103901856D01*
X116888746Y-103878116D01*
X116947566Y-103881971D01*
X116997960Y-103912551D01*
X118568410Y-105483001D01*
X118597251Y-105528271D01*
X118604257Y-105581489D01*
X118588117Y-105632681D01*
X118551853Y-105672256D01*
X118540861Y-105679952D01*
X118379953Y-105840860D01*
X118249432Y-106027264D01*
X118153261Y-106233502D01*
X118094364Y-106453310D01*
X118074531Y-106679999D01*
X118094364Y-106906689D01*
X118153261Y-107126497D01*
X118249432Y-107332735D01*
X118379953Y-107519140D01*
X118540859Y-107680046D01*
X118727264Y-107810567D01*
X118727265Y-107810567D01*
X118727266Y-107810568D01*
X118933504Y-107906739D01*
X119153308Y-107965635D01*
X119380000Y-107985468D01*
X119606692Y-107965635D01*
X119826496Y-107906739D01*
X120032734Y-107810568D01*
X120219139Y-107680047D01*
X120380047Y-107519139D01*
X120510568Y-107332734D01*
X120606739Y-107126496D01*
X120665635Y-106906692D01*
X120685468Y-106680000D01*
X120685468Y-106679999D01*
X121884531Y-106679999D01*
X121904364Y-106906689D01*
X121963261Y-107126497D01*
X122059432Y-107332735D01*
X122189953Y-107519140D01*
X122350859Y-107680046D01*
X122537264Y-107810567D01*
X122537265Y-107810567D01*
X122537266Y-107810568D01*
X122743504Y-107906739D01*
X122963308Y-107965635D01*
X123190000Y-107985468D01*
X123416692Y-107965635D01*
X123636496Y-107906739D01*
X123842734Y-107810568D01*
X124029139Y-107680047D01*
X124190047Y-107519139D01*
X124320568Y-107332734D01*
X124416739Y-107126496D01*
X124475635Y-106906692D01*
X124495468Y-106680000D01*
X124475635Y-106453308D01*
X124416739Y-106233504D01*
X124320568Y-106027266D01*
X124304977Y-106005000D01*
X124190046Y-105840859D01*
X124029140Y-105679953D01*
X123842735Y-105549432D01*
X123636497Y-105453261D01*
X123416689Y-105394364D01*
X123190000Y-105374531D01*
X122963310Y-105394364D01*
X122743502Y-105453261D01*
X122537264Y-105549432D01*
X122350859Y-105679953D01*
X122189953Y-105840859D01*
X122059432Y-106027264D01*
X121963261Y-106233502D01*
X121904364Y-106453310D01*
X121884531Y-106679999D01*
X120685468Y-106679999D01*
X120665635Y-106453308D01*
X120606739Y-106233504D01*
X120510568Y-106027266D01*
X120494977Y-106005000D01*
X120380046Y-105840859D01*
X120219140Y-105679953D01*
X120060548Y-105568907D01*
X120022595Y-105526309D01*
X120007732Y-105471226D01*
X120007536Y-105465001D01*
X120005561Y-105402126D01*
X120005500Y-105398232D01*
X120005500Y-105370653D01*
X120004997Y-105366672D01*
X120004080Y-105355019D01*
X120002709Y-105311373D01*
X119997120Y-105292140D01*
X119993174Y-105273082D01*
X119990664Y-105253206D01*
X119974588Y-105212604D01*
X119970804Y-105201553D01*
X119960433Y-105165859D01*
X119958618Y-105159610D01*
X119948414Y-105142355D01*
X119939861Y-105124895D01*
X119932486Y-105106268D01*
X119906808Y-105070925D01*
X119900401Y-105061171D01*
X119878169Y-105023579D01*
X119864006Y-105009416D01*
X119851367Y-104994617D01*
X119839595Y-104978413D01*
X119805941Y-104950573D01*
X119797299Y-104942709D01*
X115947404Y-101092813D01*
X115915310Y-101037225D01*
X115915311Y-100973037D01*
X115947405Y-100917449D01*
X116002994Y-100885357D01*
X116006226Y-100884490D01*
X116016496Y-100881739D01*
X116222734Y-100785568D01*
X116409139Y-100655047D01*
X116570047Y-100494139D01*
X116700568Y-100307734D01*
X116796739Y-100101496D01*
X116855635Y-99881692D01*
X116875468Y-99655000D01*
X116855635Y-99428308D01*
X116796739Y-99208504D01*
X116700568Y-99002266D01*
X116695436Y-98994937D01*
X116570046Y-98815859D01*
X116409140Y-98654953D01*
X116222735Y-98524432D01*
X116207023Y-98517106D01*
X116154847Y-98471348D01*
X116135428Y-98404722D01*
X116154849Y-98338097D01*
X116207026Y-98292340D01*
X116222484Y-98285131D01*
X116295472Y-98234025D01*
X115304128Y-97242681D01*
X115272034Y-97187094D01*
X115272034Y-97155001D01*
X115923553Y-97155001D01*
X116649025Y-97880472D01*
X116700134Y-97807480D01*
X116796266Y-97601326D01*
X116855141Y-97381602D01*
X116874966Y-97154999D01*
X116855141Y-96928397D01*
X116796266Y-96708673D01*
X116708286Y-96520000D01*
X118074531Y-96520000D01*
X118094364Y-96746689D01*
X118153261Y-96966497D01*
X118249432Y-97172735D01*
X118379953Y-97359140D01*
X118540859Y-97520046D01*
X118727264Y-97650567D01*
X118727265Y-97650567D01*
X118727266Y-97650568D01*
X118933504Y-97746739D01*
X119153308Y-97805635D01*
X119380000Y-97825468D01*
X119606692Y-97805635D01*
X119826496Y-97746739D01*
X120032734Y-97650568D01*
X120219139Y-97520047D01*
X120380047Y-97359139D01*
X120510568Y-97172734D01*
X120606739Y-96966496D01*
X120665635Y-96746692D01*
X120685468Y-96520000D01*
X121884531Y-96520000D01*
X121904364Y-96746689D01*
X121963261Y-96966497D01*
X122059432Y-97172735D01*
X122189953Y-97359140D01*
X122350859Y-97520046D01*
X122537264Y-97650567D01*
X122537265Y-97650567D01*
X122537266Y-97650568D01*
X122743504Y-97746739D01*
X122963308Y-97805635D01*
X123190000Y-97825468D01*
X123416692Y-97805635D01*
X123636496Y-97746739D01*
X123842734Y-97650568D01*
X124029139Y-97520047D01*
X124190047Y-97359139D01*
X124320568Y-97172734D01*
X124416739Y-96966496D01*
X124475635Y-96746692D01*
X124495468Y-96520000D01*
X124475635Y-96293308D01*
X124416739Y-96073504D01*
X124320568Y-95867266D01*
X124308501Y-95850033D01*
X124190046Y-95680859D01*
X124029140Y-95519953D01*
X123842735Y-95389432D01*
X123636497Y-95293261D01*
X123416689Y-95234364D01*
X123190000Y-95214531D01*
X122963310Y-95234364D01*
X122743502Y-95293261D01*
X122537264Y-95389432D01*
X122350859Y-95519953D01*
X122189953Y-95680859D01*
X122059432Y-95867264D01*
X121963261Y-96073502D01*
X121904364Y-96293310D01*
X121884531Y-96520000D01*
X120685468Y-96520000D01*
X120665635Y-96293308D01*
X120606739Y-96073504D01*
X120510568Y-95867266D01*
X120498501Y-95850033D01*
X120380046Y-95680859D01*
X120219140Y-95519953D01*
X120032735Y-95389432D01*
X119826497Y-95293261D01*
X119606689Y-95234364D01*
X119380000Y-95214531D01*
X119153310Y-95234364D01*
X118933502Y-95293261D01*
X118727264Y-95389432D01*
X118540859Y-95519953D01*
X118379953Y-95680859D01*
X118249432Y-95867264D01*
X118153261Y-96073502D01*
X118094364Y-96293310D01*
X118074531Y-96520000D01*
X116708286Y-96520000D01*
X116700133Y-96502515D01*
X116649025Y-96429526D01*
X115923553Y-97155000D01*
X115923553Y-97155001D01*
X115272034Y-97155001D01*
X115272034Y-97122906D01*
X115304128Y-97067319D01*
X115570000Y-96801447D01*
X116295472Y-96075974D01*
X116295471Y-96075972D01*
X116222484Y-96024866D01*
X116016326Y-95928733D01*
X115796602Y-95869858D01*
X115570000Y-95850033D01*
X115343397Y-95869858D01*
X115123673Y-95928733D01*
X114917515Y-96024866D01*
X114868611Y-96059110D01*
X114815459Y-96080226D01*
X114758484Y-96075241D01*
X114709807Y-96045216D01*
X109894413Y-91229822D01*
X109862319Y-91174234D01*
X109862319Y-91110047D01*
X109880635Y-91041692D01*
X109900468Y-90815000D01*
X109880635Y-90588308D01*
X109821739Y-90368504D01*
X109725568Y-90162266D01*
X109657812Y-90065500D01*
X109595046Y-89975859D01*
X109434140Y-89814953D01*
X109247732Y-89684430D01*
X109189724Y-89657380D01*
X109138970Y-89612869D01*
X113249500Y-89612869D01*
X113255909Y-89672484D01*
X113264133Y-89694533D01*
X113306204Y-89807331D01*
X113392454Y-89922546D01*
X113507669Y-90008796D01*
X113642517Y-90059091D01*
X113702127Y-90065500D01*
X114897872Y-90065499D01*
X114957483Y-90059091D01*
X115092331Y-90008796D01*
X115207546Y-89922546D01*
X115293796Y-89807331D01*
X115344091Y-89672483D01*
X115350500Y-89612873D01*
X115350499Y-88119499D01*
X115367112Y-88057500D01*
X115412499Y-88012113D01*
X115474499Y-87995500D01*
X115665500Y-87995500D01*
X115727500Y-88012113D01*
X115772887Y-88057500D01*
X115789500Y-88119500D01*
X115789500Y-89333556D01*
X115804158Y-89463656D01*
X115861877Y-89628606D01*
X115954852Y-89776576D01*
X116078423Y-89900147D01*
X116226393Y-89993122D01*
X116391343Y-90050841D01*
X116521444Y-90065500D01*
X116521448Y-90065500D01*
X117158552Y-90065500D01*
X117158556Y-90065500D01*
X117262635Y-90053772D01*
X117288657Y-90050841D01*
X117453606Y-89993122D01*
X117601576Y-89900147D01*
X117725147Y-89776576D01*
X117818122Y-89628606D01*
X117875841Y-89463657D01*
X117890500Y-89333552D01*
X117890500Y-89112869D01*
X119664388Y-89112869D01*
X119670797Y-89172483D01*
X119721092Y-89307331D01*
X119807342Y-89422546D01*
X119922557Y-89508796D01*
X120057405Y-89559091D01*
X120117015Y-89565500D01*
X121812760Y-89565499D01*
X121872371Y-89559091D01*
X122007219Y-89508796D01*
X122122434Y-89422546D01*
X122128940Y-89413854D01*
X122178192Y-89374699D01*
X122240321Y-89364757D01*
X122299332Y-89386590D01*
X122312152Y-89395567D01*
X122312153Y-89395567D01*
X122312154Y-89395568D01*
X122518392Y-89491739D01*
X122738196Y-89550635D01*
X122964888Y-89570468D01*
X123191580Y-89550635D01*
X123411384Y-89491739D01*
X123617622Y-89395568D01*
X123804027Y-89265047D01*
X123964935Y-89104139D01*
X124095456Y-88917734D01*
X124191627Y-88711496D01*
X124250523Y-88491692D01*
X124270356Y-88265000D01*
X124250523Y-88038308D01*
X124191627Y-87818504D01*
X124095456Y-87612266D01*
X124032719Y-87522668D01*
X123964934Y-87425859D01*
X123804028Y-87264953D01*
X123617623Y-87134432D01*
X123411385Y-87038261D01*
X123191577Y-86979364D01*
X122964888Y-86959531D01*
X122738198Y-86979364D01*
X122518390Y-87038261D01*
X122312154Y-87134432D01*
X122299329Y-87143412D01*
X122240320Y-87165242D01*
X122178192Y-87155301D01*
X122128942Y-87116146D01*
X122122436Y-87107456D01*
X122122434Y-87107455D01*
X122122434Y-87107454D01*
X122007219Y-87021204D01*
X121872371Y-86970909D01*
X121812761Y-86964500D01*
X121812757Y-86964500D01*
X120117018Y-86964500D01*
X120057403Y-86970909D01*
X119922557Y-87021204D01*
X119807342Y-87107454D01*
X119721092Y-87222668D01*
X119678494Y-87336878D01*
X119670797Y-87357517D01*
X119664508Y-87416016D01*
X119664388Y-87417130D01*
X119664388Y-89112869D01*
X117890500Y-89112869D01*
X117890500Y-87996448D01*
X117890393Y-87995500D01*
X117875841Y-87866343D01*
X117818122Y-87701393D01*
X117725147Y-87553423D01*
X117601576Y-87429852D01*
X117453606Y-87336877D01*
X117288656Y-87279158D01*
X117158556Y-87264500D01*
X117158552Y-87264500D01*
X116744500Y-87264500D01*
X116682500Y-87247887D01*
X116637113Y-87202500D01*
X116620500Y-87140500D01*
X116620500Y-85926444D01*
X116605841Y-85796343D01*
X116548122Y-85631393D01*
X116455147Y-85483423D01*
X116331576Y-85359852D01*
X116183606Y-85266877D01*
X116018656Y-85209158D01*
X115888556Y-85194500D01*
X115888552Y-85194500D01*
X115251448Y-85194500D01*
X115251444Y-85194500D01*
X115121343Y-85209158D01*
X114956393Y-85266877D01*
X114808423Y-85359852D01*
X114684852Y-85483423D01*
X114591877Y-85631393D01*
X114534158Y-85796343D01*
X114519500Y-85926444D01*
X114519500Y-87140500D01*
X114502887Y-87202500D01*
X114457500Y-87247887D01*
X114395500Y-87264500D01*
X113702130Y-87264500D01*
X113642515Y-87270909D01*
X113507669Y-87321204D01*
X113392454Y-87407454D01*
X113306204Y-87522668D01*
X113255909Y-87657516D01*
X113249500Y-87717130D01*
X113249500Y-89612869D01*
X109138970Y-89612869D01*
X109137549Y-89611623D01*
X109118130Y-89544997D01*
X109137550Y-89478373D01*
X109189721Y-89432619D01*
X109247734Y-89405568D01*
X109434139Y-89275047D01*
X109595047Y-89114139D01*
X109725568Y-88927734D01*
X109821739Y-88721496D01*
X109880635Y-88501692D01*
X109900468Y-88275000D01*
X109880635Y-88048308D01*
X109821739Y-87828504D01*
X109725568Y-87622266D01*
X109655829Y-87522668D01*
X109595046Y-87435859D01*
X109434140Y-87274953D01*
X109247735Y-87144432D01*
X109031664Y-87043676D01*
X109032322Y-87042264D01*
X108988171Y-87016770D01*
X108956081Y-86961182D01*
X108956083Y-86896997D01*
X108988174Y-86841414D01*
X110710178Y-85119410D01*
X110765764Y-85087318D01*
X110829947Y-85087318D01*
X110898308Y-85105635D01*
X111125000Y-85125468D01*
X111351692Y-85105635D01*
X111571496Y-85046739D01*
X111777734Y-84950568D01*
X111964139Y-84820047D01*
X112125047Y-84659139D01*
X112255568Y-84472734D01*
X112351739Y-84266496D01*
X112410635Y-84046692D01*
X112430468Y-83820000D01*
X112410635Y-83593308D01*
X112351739Y-83373504D01*
X112255568Y-83167266D01*
X112249637Y-83158796D01*
X112125046Y-82980859D01*
X111964140Y-82819953D01*
X111882615Y-82762869D01*
X119664388Y-82762869D01*
X119670525Y-82819953D01*
X119670797Y-82822483D01*
X119721092Y-82957331D01*
X119807342Y-83072546D01*
X119922557Y-83158796D01*
X120057405Y-83209091D01*
X120117015Y-83215500D01*
X121812760Y-83215499D01*
X121872371Y-83209091D01*
X122007219Y-83158796D01*
X122122434Y-83072546D01*
X122128940Y-83063854D01*
X122178192Y-83024699D01*
X122240321Y-83014757D01*
X122299332Y-83036590D01*
X122312152Y-83045567D01*
X122312153Y-83045567D01*
X122312154Y-83045568D01*
X122518392Y-83141739D01*
X122738196Y-83200635D01*
X122889324Y-83213857D01*
X122964887Y-83220468D01*
X122964887Y-83220467D01*
X122964888Y-83220468D01*
X123191580Y-83200635D01*
X123411384Y-83141739D01*
X123617622Y-83045568D01*
X123804027Y-82915047D01*
X123964935Y-82754139D01*
X124095456Y-82567734D01*
X124191627Y-82361496D01*
X124250523Y-82141692D01*
X124270356Y-81915000D01*
X124250523Y-81688308D01*
X124191627Y-81468504D01*
X124095456Y-81262266D01*
X124077581Y-81236738D01*
X123964934Y-81075859D01*
X123804028Y-80914953D01*
X123617623Y-80784432D01*
X123411385Y-80688261D01*
X123191577Y-80629364D01*
X122964887Y-80609531D01*
X122738198Y-80629364D01*
X122518390Y-80688261D01*
X122312154Y-80784432D01*
X122299329Y-80793412D01*
X122240320Y-80815242D01*
X122178192Y-80805301D01*
X122128942Y-80766146D01*
X122122436Y-80757456D01*
X122122434Y-80757455D01*
X122122434Y-80757454D01*
X122007219Y-80671204D01*
X121872371Y-80620909D01*
X121812761Y-80614500D01*
X121812757Y-80614500D01*
X120117018Y-80614500D01*
X120057403Y-80620909D01*
X119922557Y-80671204D01*
X119807342Y-80757454D01*
X119721092Y-80872668D01*
X119670797Y-81007516D01*
X119664388Y-81067130D01*
X119664388Y-82762869D01*
X111882615Y-82762869D01*
X111777735Y-82689432D01*
X111571497Y-82593261D01*
X111351689Y-82534364D01*
X111124999Y-82514531D01*
X110898310Y-82534364D01*
X110678502Y-82593261D01*
X110472264Y-82689432D01*
X110285859Y-82819953D01*
X110124953Y-82980859D01*
X109994432Y-83167264D01*
X109898261Y-83373502D01*
X109839364Y-83593310D01*
X109819531Y-83819999D01*
X109839364Y-84046690D01*
X109857680Y-84115047D01*
X109857680Y-84179234D01*
X109825586Y-84234821D01*
X107086208Y-86974199D01*
X107070110Y-86987096D01*
X107022096Y-87038225D01*
X107019391Y-87041017D01*
X106999874Y-87060534D01*
X106997415Y-87063705D01*
X106989842Y-87072572D01*
X106959935Y-87104420D01*
X106950285Y-87121974D01*
X106939609Y-87138228D01*
X106927326Y-87154063D01*
X106909975Y-87194158D01*
X106904838Y-87204644D01*
X106883802Y-87242907D01*
X106878821Y-87262309D01*
X106872520Y-87280711D01*
X106864561Y-87299102D01*
X106857728Y-87342242D01*
X106855360Y-87353674D01*
X106844500Y-87395978D01*
X106844500Y-87416016D01*
X106842973Y-87435415D01*
X106839840Y-87455194D01*
X102275000Y-87455194D01*
X102275000Y-87427176D01*
X102268597Y-87367624D01*
X102218352Y-87232910D01*
X102132188Y-87117811D01*
X102017089Y-87031647D01*
X101882375Y-86981402D01*
X101822824Y-86975000D01*
X101225000Y-86975000D01*
X100725000Y-86975000D01*
X100127176Y-86975000D01*
X100067624Y-86981402D01*
X99932910Y-87031647D01*
X99817811Y-87117811D01*
X99731647Y-87232910D01*
X99681402Y-87367624D01*
X99675000Y-87427176D01*
X99675000Y-88025000D01*
X94480500Y-88025000D01*
X94480500Y-83820000D01*
X96484531Y-83820000D01*
X96504364Y-84046689D01*
X96563261Y-84266497D01*
X96659432Y-84472735D01*
X96789953Y-84659140D01*
X96950859Y-84820046D01*
X97137264Y-84950567D01*
X97137265Y-84950567D01*
X97137266Y-84950568D01*
X97343504Y-85046739D01*
X97563308Y-85105635D01*
X97714435Y-85118856D01*
X97789999Y-85125468D01*
X97789999Y-85125467D01*
X97790000Y-85125468D01*
X98016692Y-85105635D01*
X98236496Y-85046739D01*
X98442734Y-84950568D01*
X98629139Y-84820047D01*
X98790047Y-84659139D01*
X98920568Y-84472734D01*
X99016739Y-84266496D01*
X99075635Y-84046692D01*
X99095468Y-83820000D01*
X99659531Y-83820000D01*
X99679364Y-84046689D01*
X99738261Y-84266497D01*
X99834432Y-84472735D01*
X99964953Y-84659140D01*
X100125859Y-84820046D01*
X100312264Y-84950567D01*
X100312265Y-84950567D01*
X100312266Y-84950568D01*
X100518504Y-85046739D01*
X100738308Y-85105635D01*
X100889435Y-85118856D01*
X100964999Y-85125468D01*
X100964999Y-85125467D01*
X100965000Y-85125468D01*
X101191692Y-85105635D01*
X101411496Y-85046739D01*
X101617734Y-84950568D01*
X101804139Y-84820047D01*
X101965047Y-84659139D01*
X102095568Y-84472734D01*
X102191739Y-84266496D01*
X102250635Y-84046692D01*
X102270468Y-83820000D01*
X102250635Y-83593308D01*
X102191739Y-83373504D01*
X102095568Y-83167266D01*
X102089637Y-83158796D01*
X101965046Y-82980859D01*
X101804140Y-82819953D01*
X101617735Y-82689432D01*
X101411497Y-82593261D01*
X101191689Y-82534364D01*
X100964999Y-82514531D01*
X100738310Y-82534364D01*
X100518502Y-82593261D01*
X100312264Y-82689432D01*
X100125859Y-82819953D01*
X99964953Y-82980859D01*
X99834432Y-83167264D01*
X99738261Y-83373502D01*
X99679364Y-83593310D01*
X99659531Y-83820000D01*
X99095468Y-83820000D01*
X99075635Y-83593308D01*
X99016739Y-83373504D01*
X98920568Y-83167266D01*
X98914637Y-83158796D01*
X98790046Y-82980859D01*
X98629140Y-82819953D01*
X98442735Y-82689432D01*
X98236497Y-82593261D01*
X98016689Y-82534364D01*
X97789999Y-82514531D01*
X97563310Y-82534364D01*
X97343502Y-82593261D01*
X97137264Y-82689432D01*
X96950859Y-82819953D01*
X96789953Y-82980859D01*
X96659432Y-83167264D01*
X96563261Y-83373502D01*
X96504364Y-83593310D01*
X96484531Y-83820000D01*
X94480500Y-83820000D01*
X94480500Y-80010000D01*
X105374531Y-80010000D01*
X105394364Y-80236689D01*
X105453261Y-80456497D01*
X105549432Y-80662735D01*
X105679953Y-80849140D01*
X105840859Y-81010046D01*
X106027264Y-81140567D01*
X106027265Y-81140567D01*
X106027266Y-81140568D01*
X106233504Y-81236739D01*
X106453308Y-81295635D01*
X106604436Y-81308857D01*
X106679999Y-81315468D01*
X106679999Y-81315467D01*
X106680000Y-81315468D01*
X106906692Y-81295635D01*
X107126496Y-81236739D01*
X107332734Y-81140568D01*
X107519139Y-81010047D01*
X107680047Y-80849139D01*
X107810568Y-80662734D01*
X107906739Y-80456496D01*
X107965635Y-80236692D01*
X107985468Y-80010000D01*
X115534531Y-80010000D01*
X115554364Y-80236689D01*
X115613261Y-80456497D01*
X115709432Y-80662735D01*
X115839953Y-80849140D01*
X116000859Y-81010046D01*
X116187264Y-81140567D01*
X116187265Y-81140567D01*
X116187266Y-81140568D01*
X116393504Y-81236739D01*
X116613308Y-81295635D01*
X116764436Y-81308857D01*
X116839999Y-81315468D01*
X116839999Y-81315467D01*
X116840000Y-81315468D01*
X117066692Y-81295635D01*
X117286496Y-81236739D01*
X117492734Y-81140568D01*
X117679139Y-81010047D01*
X117840047Y-80849139D01*
X117970568Y-80662734D01*
X118066739Y-80456496D01*
X118125635Y-80236692D01*
X118145468Y-80010000D01*
X118125635Y-79783308D01*
X118066739Y-79563504D01*
X117970568Y-79357266D01*
X117840047Y-79170861D01*
X117840046Y-79170859D01*
X117679140Y-79009953D01*
X117492735Y-78879432D01*
X117286497Y-78783261D01*
X117066689Y-78724364D01*
X116839999Y-78704531D01*
X116613310Y-78724364D01*
X116393502Y-78783261D01*
X116187264Y-78879432D01*
X116000859Y-79009953D01*
X115839953Y-79170859D01*
X115709432Y-79357264D01*
X115613261Y-79563502D01*
X115554364Y-79783310D01*
X115534531Y-80010000D01*
X107985468Y-80010000D01*
X107965635Y-79783308D01*
X107906739Y-79563504D01*
X107810568Y-79357266D01*
X107680047Y-79170861D01*
X107680046Y-79170859D01*
X107519140Y-79009953D01*
X107332735Y-78879432D01*
X107126497Y-78783261D01*
X106906689Y-78724364D01*
X106679999Y-78704531D01*
X106453310Y-78724364D01*
X106233502Y-78783261D01*
X106027264Y-78879432D01*
X105840859Y-79009953D01*
X105679953Y-79170859D01*
X105549432Y-79357264D01*
X105453261Y-79563502D01*
X105394364Y-79783310D01*
X105374531Y-80010000D01*
X94480500Y-80010000D01*
X94480500Y-76824500D01*
X94497113Y-76762500D01*
X94542500Y-76717113D01*
X94604500Y-76700500D01*
X126375500Y-76700500D01*
X126437500Y-76717113D01*
G37*
%TD.AperFunction*%
%TD*%
M02*
